<?xml version="1.0" encoding="utf-8"?>
<!-- Generator: Adobe Illustrator 27.5.0, SVG Export Plug-In . SVG Version: 6.00 Build 0)  -->
<svg version="1.1" xmlns="http://www.w3.org/2000/svg" xmlns:xlink="http://www.w3.org/1999/xlink" x="0px" y="0px"
	 viewBox="0 0 600 500" style="enable-background:new 0 0 600 500;" xml:space="preserve">
<g id="BACKGROUND">
	<rect style="fill:#B9F3FF;" width="600" height="500"/>
</g>
<g id="OBJECTS">
	<g>
		<path style="fill:#D4F9FF;" d="M99.002,450.609c-20.201-19.977-40.385-40.951-52.037-66.862
			c-11.652-25.911-13.343-58.043,2.679-81.505c8.723-12.773,22.288-22.679,26.868-37.452c8.383-27.037-16.89-52.378-22.196-80.183
			c-3.924-20.563,4.271-42.984,20.53-56.17c16.259-13.186,39.889-16.574,59.199-8.489c11.816,4.948,21.898,13.74,34.174,17.403
			c26.089,7.785,52.919-9.606,71.9-29.124c18.98-19.518,36.015-42.979,61.516-52.516c34.271-12.818,74.734,5.343,95.544,35.438
			c20.811,30.095,24.864,69.066,20.405,105.383c-1.523,12.403-3.96,24.79-3.476,37.277c0.484,12.487,4.291,25.433,13.38,34.009
			c9.089,8.576,24.24,11.336,34.308,3.933c10.959-8.058,12.595-24.406,22.786-33.416c9.956-8.803,25.888-7.909,37.182-0.905
			c11.294,7.004,18.709,18.82,24.342,30.856c26.807,57.276,19.38,129.068-18.585,179.644L99.002,450.609z"/>
		<g>
			<g>
				<g>
					<g>
						<path style="fill:#FFFFFF;" d="M315.354,213.357l-31.24,8.312c-15.003,3.992-27.301,14.727-33.283,29.053L215.5,335.333
							l43.311,20.333L254.5,436h158l-2.671-21.701c-1.773-14.409-2.69-28.91-2.746-43.427L406.5,218l-49.008-7.167L315.354,213.357z
							"/>
						<path style="fill:#C7D2D7;" d="M315.354,213.357l-17.286,17.872c-1.201,1.241-1.108,3.238,0.203,4.362l7.496,6.432
							l-13.003,20.334c-0.743,1.161-0.598,2.679,0.35,3.68l30.643,32.344L315.354,213.357z"/>
						<path style="fill:#C7D2D7;" d="M357.492,210.833l17.207,20.612c1.564,1.873,1.1,4.699-0.981,5.974l-13.052,7.998
							l12.222,17.291c1.327,1.877,0.802,4.484-1.147,5.702l-47.985,29.97L357.492,210.833z"/>
						<path style="fill:#FFFFFF;" d="M323.757,298.38l33.736-87.547l13.138,19.27c1.224,1.796,0.791,4.241-0.977,5.506
							l-12.162,8.705l11.266,17.469c1.16,1.799,0.698,4.193-1.048,5.431L323.757,298.38z"/>
						<path style="fill:#FFFFFF;" d="M315.354,213.357l8.402,85.023l-26.6-33.934c-1.002-1.278-1.132-3.035-0.328-4.447l10.817-19
							l-6.128-6.027c-1.508-1.483-1.601-3.883-0.212-5.478L315.354,213.357z"/>
						<polygon style="fill:#C7D2D7;" points="323.757,298.38 325.293,363.5 323.757,432 320.311,363.333 						"/>
						<path style="fill:#C7D2D7;" d="M399.75,247.947l-5,56.303l-30.002-18.75l14.508,5.285c4.078,1.486,8.491-1.155,9.108-5.452
							l0,0c1.748-12.159,5.239-24.002,10.365-35.165L399.75,247.947z"/>
						<path style="fill:#C7D2D7;" d="M406.858,311.817l-42.11-26.317l-32.164,8.571c3.416,6.887,8.916,10.179,8.916,10.179l7,16.565
							c-0.5,12.935,3,27.935,3,27.935l38.08,27.807c5.255,3.837,11.481,5.766,17.729,5.756c-0.134-3.812-0.211-7.626-0.226-11.442
							L406.858,311.817z"/>
						<g>
							<path style="fill:#C7D2D7;" d="M393.005,394.164c-13.938,0.788-27.934,0.694-41.858-0.281
								c0.328,4.424,0.692,9.028,1.029,13.5c0.095,1.253,0.957,2.299,2.166,2.641c7.193,2.038,14.55,4.462,21.724,6.456
								c0.553,0.154,1.133,0.15,1.682-0.018c5.241-1.61,10.791-4.09,15.597-6.794c1.207-0.679,1.775-2.096,1.405-3.431
								C393.678,402.369,392.785,397.858,393.005,394.164z"/>
							<path style="fill:#FFFFFF;" d="M391.169,392.039c-12.827,0.788-25.708,0.694-38.522-0.281
								c0.348,5.114,0.742,10.468,1.09,15.582c7.462,2.219,15.157,5.03,22.619,7.249c5.749-1.818,11.722-4.187,16.764-7.493
								C391.899,402.829,390.926,396.47,391.169,392.039z"/>
						</g>
						<g>
							<path style="fill:#C7D2D7;" d="M264.651,394.164c11.354,0.788,22.756,0.694,34.099-0.281
								c-0.267,4.424-0.564,9.028-0.838,13.5c-0.077,1.253-0.78,2.299-1.764,2.641c-5.859,2.038-11.853,4.462-17.697,6.456
								c-0.45,0.154-0.923,0.15-1.37-0.018c-4.27-1.61-8.791-4.09-12.706-6.794c-0.983-0.679-1.446-2.096-1.145-3.431
								C264.103,402.369,264.83,397.858,264.651,394.164z"/>
							<path style="fill:#FFFFFF;" d="M266.079,392.039c10.005,0.788,20.052,0.694,30.046-0.281
								c-0.272,5.114-0.579,10.468-0.85,15.582c-5.82,2.219-11.822,5.03-17.642,7.249c-4.484-1.818-9.143-4.187-13.075-7.493
								C265.51,402.829,266.268,396.47,266.079,392.039z"/>
						</g>
						<path style="fill:#7DD3E9;" d="M262.915,304.867c8.548-1,17.239-0.788,25.723,0.651c4.271,0.724,8.172,2.958,10.859,6.356
							c2.229,2.818,4.091,5.87,5.586,9.164c1.926,4.242,1.289,9.209-1.712,12.773c-2.324,2.761-4.778,5.677-6.599,7.896
							c-0.617,0.752-1.53,1.181-2.503,1.172c-0.033,0-0.066-0.001-0.1-0.001c-2.645-0.027-4.174-2.966-2.719-5.175
							c1.622-2.46,3.014-5.082,4.203-7.759c-2.84,3.835-6.293,7.429-10.036,10.55c-2.614,2.179-6.007,3.198-9.396,2.89
							c-5.228-0.474-10.525-0.917-15.779-1.379c-6.174-0.543-11.449-4.703-13.396-10.587c-0.208-0.627-0.402-1.26-0.582-1.899
							C243.19,317.953,250.976,306.264,262.915,304.867z"/>
					</g>
					<g>
						<g>
							<polygon style="fill:#F0BF9C;" points="316.333,183.5 316.333,210 333.833,218.667 353.875,204.5 347.451,169.146 							"/>
							<path style="fill:#472948;" d="M334.611,202.653c6.233-5.296,10.002-13.028,11.933-20.976
								c0.722-2.971,1.207-5.983,1.546-9.018l-0.639-3.514L316.333,183.5v25.207C322.808,209.356,329.59,206.92,334.611,202.653z"/>
						</g>
						<polygon style="fill:#C4FFFF;" points="333.833,218.667 345.967,240.744 357.492,210.833 353.875,204.5 						"/>
						<polygon style="fill:#C4FFFF;" points="316.333,210 333.833,218.667 317.707,237.167 315.354,213.357 						"/>
						<polygon style="fill:#ACEFED;" points="333.833,218.667 317.707,237.167 323.757,298.38 345.967,240.744 						"/>
						<g>
							<polygon style="fill:#5FA5CC;" points="333.833,218.667 325.293,228.465 328.167,237.167 335.104,237.833 339.875,229.66 
															"/>
							<polygon style="fill:#5FA5CC;" points="328.167,237.167 320.311,263.519 323.757,298.38 337.96,261.523 335.104,237.833 
															"/>
							<path style="fill:#418AAA;" d="M325.293,228.465l2.874,8.702l6.938,0.667l1.522-2.607l-2.472-0.24
								c-3.014-0.292-5.526-2.435-6.291-5.365l-0.824-3.16L325.293,228.465z"/>
						</g>
					</g>
					<g>
						<path style="fill:#6A3649;" d="M277.379,162.946c-12.473-10.818-18.936-28.166-16.581-44.508
							c2.355-16.342,13.452-31.16,28.472-38.017c6.938-3.167,14.713-4.705,22.275-3.719c7.563,0.986,14.872,4.612,19.731,10.49
							c1.528-6.425,2.355-13.261,2.05-19.858c2.507,2.262,4.095,6.205,4.297,9.576c0.203,3.37-0.966,6.803-3.184,9.349
							c3.94-4.368,10.098-6.283,15.92-5.434c-3.725,2.05-7.491,4.415-11.217,6.464c5.166-1.712,11.457-0.79,16.414,1.456
							c4.957,2.245,9.016,6.408,11.136,11.42c1.89,4.469,2.246,9.434,2.163,14.286c-0.19,11.172-2.594,22.302-7.031,32.556
							c-2.46,5.685-8.712,9.654-13.963,12.94c-4.317-6.613-11.457-12.326-17.825-16.997c-11.592,2.834-23.16,5.955-33.852,11.256
							c-3.837,1.902-7.523,4.109-11.012,6.592C283.216,162.19,279.194,164.519,277.379,162.946z"/>
						<path style="fill:#F0BF9C;" d="M340.064,143.914c-7.949-3.521-16.487-18.714-16.195-29.992
							c-13.353,15.285-31.365,25.405-50.975,30.556c1.839,10.694,5.847,21.532,9.466,29.557
							c5.503,12.203,14.582,24.309,27.716,26.899c12.598,2.484,25.698-4.997,32.651-15.793c5.071-7.874,7.327-17.148,7.926-26.565
							C345.968,154.545,342.196,149.453,340.064,143.914z"/>
						<g>
							<g>
								<g>
									<path style="fill:#6A3649;" d="M319.207,138.287c4.696,0.028,8.843,2.301,11.464,5.785l-22.997-0.138
										C310.337,140.482,314.511,138.259,319.207,138.287z"/>
								</g>
								<path style="fill:#472948;" d="M314.348,155.137c-0.137,2.149,1.493,4.002,3.642,4.14c2.148,0.137,4.002-1.493,4.139-3.642
									c0.137-2.149-1.493-4.002-3.642-4.139C316.339,151.358,314.486,152.988,314.348,155.137z"/>
								<g>
									<path style="fill:#6A3649;" d="M282.294,144.45c-3.563,0.677-6.233,3.471-7.487,7.235l17.447-3.316
										C289.5,145.367,285.857,143.773,282.294,144.45z"/>
								</g>
								<path style="fill:#472948;" d="M289.554,160.232c0.559,2.079-0.287,4.114-1.891,4.546c-1.604,0.431-3.357-0.904-3.917-2.984
									c-0.559-2.079,0.287-4.114,1.891-4.546C287.241,156.817,288.995,158.152,289.554,160.232z"/>
							</g>
						</g>
						<g>
							<polygon style="fill:#FFFFFF;" points="336.125,160.424 350.653,149.49 350.653,153.772 338.376,163.941 							"/>
							<polygon style="fill:#FFFFFF;" points="345.75,172.625 350.335,163.244 353.875,162.625 348.333,175.667 							"/>
							<g>
								<path style="fill:#FFFFFF;" d="M291.211,173.089c3.568-1.926,6.883-4.512,10.837-5.409
									c4.642-1.052,9.441,0.378,14.191,0.676c8.043,0.504,16.22-2.479,22.136-7.932c-1.126-1.151-2.333-2.224-3.617-3.149
									c-5.291,5.326-13.033,8.111-20.504,7.377c-4.059-0.399-8.106-1.775-12.132-1.119c-3.862,0.629-7.152,3.037-10.581,4.924
									c-3.428,1.887-7.579,3.301-11.195,1.805c0.666,1.643,1.322,3.302,2.029,4.989
									C285.325,175.619,288.516,174.544,291.211,173.089z"/>
								<path style="fill:#7DD3E9;" d="M338.376,160.424c-5.917,5.453-14.094,8.437-22.136,7.932
									c-4.75-0.298-9.549-1.729-14.191-0.676c-3.954,0.896-7.269,3.483-10.837,5.409c-2.695,1.455-5.886,2.529-8.836,2.163
									c2.441,5.825,5.534,12.011,12.125,19.248c8.5,9.333,39.333,18.333,53.833-18.833
									C348.333,175.667,344.623,166.813,338.376,160.424z"/>
							</g>
							<g>
								<g>
									<path style="fill:#5FA5CC;" d="M335.087,170.329c-3.265,1.016-7.005,1.991-11.026,2.59
										c-4.019,0.614-8.302,0.833-12.57,0.559c-2.154-0.134-4.423-0.351-6.759-0.192c-1.165,0.082-2.344,0.27-3.481,0.603
										c-1.139,0.337-2.179,0.808-3.135,1.308c-1.914,1.005-3.544,2.102-5.228,2.847c-1.675,0.751-3.41,1.198-5.121,1.004
										c1.563,0.732,3.598,0.78,5.555,0.351c1.983-0.415,3.901-1.283,5.784-1.973c1.897-0.728,3.709-1.097,5.751-1.094
										c2.027-0.015,4.172,0.246,6.43,0.391c4.567,0.296,9.186-0.229,13.294-1.422
										C328.702,174.127,332.309,172.315,335.087,170.329z"/>
								</g>
								<g>
									<path style="fill:#5FA5CC;" d="M324.991,179.098c-4.31,0.64-9.799,1.609-15.328,2.304
										c-5.526,0.718-11.082,1.161-15.415,1.627c4.256,0.916,10.015,1.166,15.678,0.428
										C315.592,182.746,321.103,181.055,324.991,179.098z"/>
								</g>
								<g>
									<path style="fill:#5FA5CC;" d="M320.031,185.215c-2.781,0.5-6.323,1.186-9.903,1.623c-3.578,0.454-7.18,0.658-9.999,0.856
										c2.736,0.696,6.482,0.947,10.165,0.477C313.979,187.723,317.55,186.561,320.031,185.215z"/>
								</g>
							</g>
						</g>
						<g>
							<path style="fill:#F0BF9C;" d="M353.557,145.737c1.963-1.478,4.46-2.541,6.853-1.985c2.978,0.692,4.948,3.826,5.02,6.882
								c0.073,3.056-1.406,5.963-3.325,8.343c-1.418,1.758-3.134,3.335-5.207,4.231c-2.073,0.896-4.542,1.043-6.564,0.036
								C342.749,159.465,349.03,149.146,353.557,145.737z"/>
							<path style="fill:#EBA58E;" d="M362.65,151.595c-1.666-2.046-4.813-2.708-7.162-1.507c-2.349,1.201-3.655,4.14-2.971,6.688
								c0.24,0.896,0.788,1.808,1.68,2.063c1.004,0.288,2.04-0.355,2.765-1.107c0.725-0.752,1.321-1.704,1.349-2.748
								s-0.67-2.15-1.703-2.304C357.997,151.46,360.927,150.923,362.65,151.595z"/>
						</g>
						<path style="fill:#8E5A61;" d="M267.773,114.736c5.204-14.288,17.253-25.906,31.721-30.586
							c9.319-3.014,23.562-2.284,31.782,3.042c-4.859-5.878-12.169-9.504-19.731-10.49c-7.563-0.986-15.337,0.552-22.275,3.719
							c-15.02,6.857-26.117,21.675-28.472,38.017c-1.916,13.299,2.009,27.263,10.259,37.833
							C264.149,143.74,262.872,128.193,267.773,114.736z"/>
					</g>
				</g>
				<g>
					<g>
						<path style="fill:#99A3B0;" d="M239.642,378.75c-38-24-13.192-98.645,32.64-107.344l8.538-23.459
							C208.892,258,156.392,389.5,239.642,418.25V378.75z"/>
						<rect x="224.75" y="378.75" style="fill:#ACBBBF;" width="14.892" height="39.5"/>
						<path style="fill:#C7D2D7;" d="M224.75,378.75c-38-24-13.192-98.645,32.64-107.344l8.538-23.459
							C194,258,141.5,389.5,224.75,418.25V378.75z"/>
					</g>
					<path style="opacity:0.3;fill:#21255C;" d="M280.82,247.947c-5.65,0.79-11.18,2.331-16.533,4.51l1.642-4.51
						c-4.491,0.628-8.905,1.729-13.216,3.249l-8.822,24.903l9.952,2.876c5.623-3.665,11.809-6.31,18.439-7.569L280.82,247.947z"/>
					<g>
						<g>
							<path style="fill:#797C99;" d="M310.932,210.923c0.967-2.657-2.602-6.395-7.972-8.35c-5.37-1.954-10.507-1.385-11.474,1.272
								l-0.747,2.053l0.929,0.338c0.963,2.197,3.905,4.545,7.79,5.959c3.885,1.414,7.648,1.506,9.798,0.443l0.929,0.338
								L310.932,210.923z"/>
							<path style="fill:#495375;" d="M310.185,212.976c-0.967,2.657-6.104,3.227-11.474,1.272c-5.37-1.954-8.939-5.693-7.972-8.35
								c0.967-2.657,6.104-3.227,11.474-1.272C307.583,206.581,311.152,210.319,310.185,212.976z"/>
						</g>
						<path style="fill:#99A3B0;" d="M301.497,206.595c-4.061-1.478-7.945-1.047-8.677,0.962l-11.431,31.406l14.705,5.352
							l11.431-31.406C308.257,210.9,305.558,208.072,301.497,206.595z"/>
						<g>
							<path style="fill:#797C99;" d="M312.741,249.046c2.361-6.487-6.353-15.615-19.463-20.386
								c-13.11-4.772-25.652-3.381-28.014,3.106l-1.824,5.012l2.267,0.825c2.352,5.363,9.533,11.096,19.02,14.549
								c9.487,3.453,18.673,3.677,23.922,1.08l2.267,0.825L312.741,249.046z"/>
							<path style="fill:#495375;" d="M310.917,254.058c-2.361,6.487-14.903,7.878-28.014,3.106
								c-13.11-4.772-21.824-13.899-19.463-20.386c2.361-6.487,14.903-7.878,28.014-3.106
								C304.564,238.443,313.278,247.57,310.917,254.058z"/>
						</g>
						<path style="fill:#99A3B0;" d="M289.705,238.477c-9.914-3.609-19.399-2.557-21.185,2.349l-27.909,76.679l35.903,13.068
							l27.909-76.679C306.209,248.988,299.62,242.085,289.705,238.477z"/>
						<path style="opacity:0.3;fill:#FFFFFF;" d="M266.234,319.027L266.234,319.027c-2.851-1.038-4.322-4.191-3.284-7.042
							l21.893-60.151c1.038-2.851,4.191-4.322,7.042-3.284l0,0c2.851,1.038,4.322,4.191,3.284,7.042l-21.893,60.151
							C272.238,318.594,269.085,320.065,266.234,319.027z"/>
						<g>
							<g>
								<path style="fill:#797C99;" d="M290.265,331.928c3.037-8.343-8.17-20.081-25.031-26.218
									c-16.861-6.137-32.991-4.348-36.027,3.995l-2.346,6.445l2.916,1.061c3.025,6.898,12.261,14.271,24.461,18.711
									c12.2,4.441,24.014,4.729,30.766,1.389l2.916,1.061L290.265,331.928z"/>
								
									<ellipse transform="matrix(0.342 -0.9397 0.9397 0.342 -138.1678 457.1981)" style="fill:#495375;" cx="257.39" cy="327.261" rx="16.076" ry="32.488"/>
							</g>
							<g>
								<path style="fill:#797C99;" d="M272.741,336.219c1.635-4.491-4.398-10.81-13.474-14.113
									c-9.076-3.304-17.759-2.341-19.394,2.15l-7.647,21.01l1.569,0.571c1.629,3.713,6.6,7.682,13.168,10.073
									c6.568,2.391,12.927,2.546,16.562,0.748l1.57,0.571L272.741,336.219z"/>
								<path style="fill:#495375;" d="M265.094,357.229c-1.635,4.491-10.318,5.454-19.394,2.15
									c-9.076-3.303-15.109-9.622-13.474-14.113c1.635-4.491,10.318-5.454,19.394-2.15
									C260.696,346.419,266.729,352.738,265.094,357.229z"/>
							</g>
						</g>
					</g>
					<g>
						<polygon style="fill:#797C99;" points="320.311,376.447 235.8,376.447 206.25,348.75 290.762,348.75 						"/>
						<polygon style="fill:#21255C;" points="206.25,348.75 207.58,343.205 292.092,343.205 290.762,348.75 						"/>
						<polygon style="fill:#495375;" points="321.642,370.902 320.311,376.447 290.762,348.75 292.092,343.205 						"/>
					</g>
					<g>
						<rect x="158" y="425.5" style="fill:#21255C;" width="142" height="10.5"/>
						<rect x="300" y="425.5" style="fill:#495375;" width="64.748" height="10.5"/>
					</g>
					<g>
						<g>
							<path style="fill:#797C99;" d="M214.25,384.86L214.25,384.86L214.25,384.86c-0.191-0.018-0.382-0.019-0.573,0h-7.427
								l-0.875,10.162L184.25,425.5h18.5h11.5H217v-37.655C217,386.108,215.677,384.992,214.25,384.86z"/>
							<path style="fill:#99A3B0;" d="M209,425.5v-37.655c0-2.94-3.791-4.126-5.466-1.709L176.25,425.5H209z"/>
						</g>
						<path style="fill:#495375;" d="M205.283,403.667c0,2.923-1.757,5.292-3.925,5.292s-3.925-2.369-3.925-5.292
							c0-2.922,1.757-5.292,3.925-5.292S205.283,400.744,205.283,403.667z"/>
					</g>
				</g>
				<g>
					<g>
						<path style="fill:#FFFFFF;" d="M399.75,247.947l-5,56.303l-19.25-12l-16.75,49.25l34.386,25.656
							c8.548,6.378,19.895,7.582,29.591,3.141h0c10.372-4.751,17.023-15.112,17.023-26.521v-79.071
							c0-18.637-10.618-35.645-27.362-43.828L406.5,218L399.75,247.947z"/>
						<path style="fill:#C7D2D7;" d="M394.75,304.25l28.268,17.622c-6.268-19.372-15.188-21.159-27.978-20.89L394.75,304.25z"/>
					</g>
					<path style="fill:#99A3B0;" d="M358.75,341.5c0,0,21.75-23.75,16.75-49.25C361.25,297.5,356.5,321.75,358.75,341.5z"/>
					<g>
						<path style="fill:#99A3B0;" d="M379.798,338.518l-0.625,0.727l0.196,0.168c-0.258,1.029,0.143,2.213,1.111,2.964
							c0.876,0.68,1.977,0.815,2.871,0.462l0.221,0.19l0.815-0.948c0.891-1.147,0.586-2.875-0.682-3.859
							C382.438,337.238,380.689,337.371,379.798,338.518z"/>
						<path style="fill:#C7D2D7;" d="M383.081,338.949c1.267,0.984,1.573,2.712,0.682,3.859c-0.891,1.147-2.64,1.28-3.908,0.296
							c-1.267-0.984-1.573-2.712-0.682-3.859C380.064,338.097,381.813,337.965,383.081,338.949z"/>
					</g>
					<g>
						<path style="fill:#99A3B0;" d="M388.02,344.16l-0.625,0.727l0.196,0.168c-0.258,1.029,0.143,2.213,1.111,2.964
							c0.876,0.68,1.977,0.815,2.871,0.462l0.221,0.19l0.815-0.948c0.891-1.147,0.585-2.875-0.682-3.859
							C390.661,342.88,388.911,343.013,388.02,344.16z"/>
						<path style="fill:#C7D2D7;" d="M391.303,344.591c1.267,0.984,1.573,2.712,0.682,3.859c-0.891,1.147-2.64,1.28-3.908,0.296
							c-1.267-0.984-1.573-2.712-0.682-3.859C388.286,343.739,390.036,343.607,391.303,344.591z"/>
					</g>
					<g>
						<path style="fill:#F0BF9C;" d="M375.5,292.25c2.757,14.061-2.619,27.59-7.998,36.898l-14.252-18.449l11.498-25.199
							L375.5,292.25z"/>
						<path style="fill:#EBA58E;" d="M364.459,310.435c3.673-7.075,4.772-15.48,2.973-23.251l-2.684-1.685l-11.498,25.199
							l14.252,18.449c1.019-1.763,2.037-3.679,3.001-5.721c-1.766-2.084-3.526-4.192-5.298-6.248
							C363.583,315.299,363.315,312.639,364.459,310.435z"/>
					</g>
					<g>
						<path style="fill:#7DD3E9;" d="M366,283.75l-17.667-13l-28.496-20.127c-3.978-2.809-9.108-3.467-13.64-1.684
							c-7.388,2.906-14.498,7.35-20.334,12.303c-1.596,1.354-3.201,2.896-3.345,5.143c-0.061,0.948,0.267,1.919,0.97,2.559
							c1.557,1.416,3.575,0.578,5.24-0.251c7.437-3.704,14.874-7.408,22.311-11.112c-6.699,4.299-13.741,9.162-20.44,13.461
							c-1.469,0.943-2.984,1.931-3.925,3.401c-0.941,1.47-1.14,3.569,0.015,4.878c0.905,1.024,2.42,1.325,3.768,1.101
							c1.348-0.224,2.575-0.891,3.773-1.548c6.885-3.776,13.769-7.552,20.654-11.328c-5.567,4.231-11.098,8.553-16.665,12.784
							c-1.181,0.898-2.393,1.83-3.137,3.114c-0.744,1.284-0.908,3.022,0.005,4.192c0.782,1.003,2.176,1.363,3.44,1.224
							c1.264-0.139,2.438-0.699,3.583-1.251c5.457-2.63,10.915-5.259,16.372-7.889c-3.902,3.504-8.126,6.444-12.027,9.948
							c-1.281,1.15-2.693,2.755-1.991,4.384c0.32,0.743,1.035,1.254,1.821,1.444c1.373,0.331,2.703-0.156,3.948-0.697
							c3.687-1.6,7.132-3.756,10.184-6.371c12.083,7.825,22.333,7.176,22.333,7.176l11,20.399C371.75,308.75,366,283.75,366,283.75z
							"/>
						<g>
							<path style="fill:#5FA5CC;" d="M353.635,309.388c1.685-0.989,3.468-2.467,5.016-4.371c1.553-1.897,2.865-4.206,3.742-6.676
								c0.871-2.472,1.303-5.093,1.288-7.544c-0.007-2.454-0.463-4.724-1.151-6.553c0.203,3.906-0.231,8.858-1.891,13.476
								C359.026,302.355,356.25,306.479,353.635,309.388z"/>
						</g>
						<g>
							<path style="fill:#5FA5CC;" d="M353.108,306.032c2.087-1.701,4.235-4.708,5.333-8.13c1.137-3.409,1.181-7.105,0.503-9.71
								c-0.18,2.689-0.649,6.08-1.721,9.311C356.177,300.744,354.552,303.757,353.108,306.032z"/>
						</g>
						<g>
							<path style="fill:#5FA5CC;" d="M344.274,293.586c1.352-0.989,2.718-2.46,3.754-4.311c1.041-1.843,1.745-4.056,1.911-6.331
								c0.166-2.275-0.21-4.567-0.974-6.541c-0.757-1.981-1.895-3.634-3.09-4.809c1.563,2.955,2.798,7.088,2.472,11.234
								C348.069,286.979,346.248,290.889,344.274,293.586z"/>
						</g>
					</g>
				</g>
			</g>
			<g>
				<rect x="34.833" y="436.087" style="fill:#A59B95;" width="364.246" height="21.41"/>
				<rect x="399.08" y="436.087" style="fill:#D4CFBE;" width="166.087" height="21.41"/>
			</g>
			<g>
				<path style="fill:#7DD3E9;" d="M71.834,428.087c-2.757,0-5-2.243-5-5V383h72.333v40.087c0,2.757-2.243,5-5,5H71.834z"/>
				<g>
					<path style="fill:#91B66A;" d="M95.243,309.163c-0.995-3.34-2.901-6.201-5.083-8.583c-2.165-2.391-4.976-4.166-7.897-5.361
						c-5.846-2.411-12.761-2.179-19.103,0.658l0,0l0,0c1.34,2.815,3.021,5.325,5.254,7.375c2.258,2.039,4.768,3.743,7.646,4.958
						C81.834,310.614,88.611,311.307,95.243,309.163L95.243,309.163L95.243,309.163z"/>
					<path style="fill:#638674;" d="M101.359,331.428c-1.51-6.816-5.98-12.201-11.595-15.111c-5.716-2.914-12.48-3.388-19.078-1.16
						l0,0l0,0c0.921,2.985,2.555,5.583,4.531,7.854c1.947,2.278,4.389,4.183,7.166,5.658
						C87.789,331.637,94.554,332.942,101.359,331.428L101.359,331.428L101.359,331.428z"/>
					<path style="fill:#91B66A;" d="M105.372,354.165c-0.169-1.734-0.652-3.385-1.222-4.956c-0.582-1.57-1.313-3.052-2.17-4.425
						c-1.733-2.744-4.129-5.02-6.766-6.743c-1.334-0.859-2.729-1.582-4.229-2.145c-1.51-0.56-3.079-0.969-4.688-1.22
						c-3.218-0.503-6.594-0.368-9.985,0.426h0v0c0.349,1.524,0.896,2.964,1.531,4.34c0.607,1.381,1.364,2.685,2.251,3.906
						c0.887,1.221,1.905,2.36,3.035,3.41c1.081,1.058,2.272,2.027,3.561,2.894c2.576,1.734,5.534,3.068,8.712,3.872
						C98.562,354.329,101.911,354.608,105.372,354.165L105.372,354.165L105.372,354.165z"/>
					<path style="fill:#638674;" d="M107.204,377.182c-0.064-1.74-0.302-3.433-0.698-5.052c-0.415-1.618-1.061-3.159-1.801-4.605
						c-1.5-2.892-3.513-5.396-6.079-7.348c-5.056-3.93-11.571-5.662-18.509-4.697v0l0,0c0.391,3.099,1.401,5.969,2.999,8.56
						c1.489,2.599,3.506,4.926,5.95,6.892c2.477,1.962,5.171,3.573,8.256,4.673C100.382,376.703,103.724,377.296,107.204,377.182
						L107.204,377.182L107.204,377.182z"/>
					<path style="fill:#638674;" d="M95.243,309.163c-0.995-3.338-1.56-6.645-1.365-9.961c0.212-3.322,0.812-6.52,2.063-9.572
						c2.514-6.091,6.94-11.398,13.315-14.249v0v0c1.638,3.485,2.288,7.194,2.361,10.721c0.099,3.52-0.682,6.973-1.988,10.043
						C107.046,302.296,101.865,307.022,95.243,309.163L95.243,309.163L95.243,309.163z"/>
					<path style="fill:#91B66A;" d="M101.359,331.428c-1.505-6.787-0.488-13.541,2.549-19.384
						c2.954-5.787,8.009-10.695,14.608-12.923h0l0,0c1.149,3.664,1.643,7.356,1.328,10.886c-0.344,3.541-1.344,6.875-2.908,9.802
						C113.668,325.714,108.151,329.917,101.359,331.428L101.359,331.428L101.359,331.428z"/>
					<path style="fill:#638674;" d="M105.372,354.165c-0.169-1.734-0.302-3.43-0.208-5.108c0.081-1.676,0.328-3.324,0.725-4.934
						c0.776-3.215,1.997-6.25,3.807-9.015c0.889-1.379,1.925-2.69,3.032-3.898c1.096-1.205,2.309-2.316,3.627-3.308
						c2.635-1.983,5.689-3.492,9.08-4.286l0,0l0,0c0.43,1.87,0.709,3.73,0.754,5.566c0.018,1.842-0.135,3.649-0.447,5.39
						c-0.312,1.741-0.784,3.417-1.402,5.002c-0.666,1.594-1.48,3.096-2.419,4.484c-1.88,2.777-4.274,5.094-7.063,6.812
						C112.052,352.595,108.82,353.725,105.372,354.165L105.372,354.165L105.372,354.165z"/>
					<path style="fill:#91B66A;" d="M107.204,377.182c-0.064-1.74,0.05-3.445,0.325-5.108c0.256-1.661,0.598-3.276,1.13-4.84
						c1.042-3.126,2.701-6.047,4.66-8.621c3.998-5.137,9.92-9.022,16.779-9.976h0h0c0.488,3.809,0.176,7.54-0.714,10.942
						c-0.996,3.416-2.628,6.51-4.719,9.095c-2.058,2.585-4.783,4.675-7.725,6.123C113.975,376.25,110.685,377.068,107.204,377.182
						L107.204,377.182L107.204,377.182z"/>
					<path style="fill:#638674;" d="M90.242,295.236c1.347-3.176,2.03-6.59,1.904-9.922c-0.168-3.312-0.921-6.639-2.379-9.629
						c-1.507-2.967-3.491-5.705-6.053-7.861c-2.587-2.144-5.601-3.781-8.922-4.704h0l0,0c-0.942,3.39-1.207,6.735-0.862,9.909
						c0.321,3.188,1.107,6.285,2.526,9.072c1.37,2.811,3.153,5.425,5.524,7.629C84.31,291.951,87.006,293.864,90.242,295.236
						L90.242,295.236L90.242,295.236z"/>
					<g>
						<path style="fill:#456179;" d="M106.14,409.514c-0.212-0.022-0.276-1.723-0.21-4.77c0.019-1.524,0.129-3.382,0.162-5.542
							c0.024-2.159,0.051-4.617,0.081-7.333c0.006-10.852-0.477-25.869-2.998-42.227c-2.418-16.367-6.139-30.919-9.335-41.295
							c-0.359-1.311-0.762-2.539-1.148-3.7c-0.376-1.165-0.73-2.264-1.061-3.291c-0.659-2.057-1.182-3.848-1.696-5.281
							c-0.971-2.886-1.417-4.526-1.22-4.608c0.197-0.081,1.018,1.404,2.339,4.171c0.689,1.372,1.38,3.111,2.198,5.127
							c0.404,1.01,0.836,2.091,1.294,3.236c0.461,1.145,0.937,2.36,1.366,3.661c3.756,10.288,7.868,24.952,10.316,41.53
							c2.553,16.568,2.695,31.809,2.127,42.74c-0.2,2.731-0.381,5.202-0.54,7.373c-0.198,2.166-0.484,4.022-0.687,5.539
							C106.692,407.875,106.351,409.536,106.14,409.514z"/>
					</g>
				</g>
				<path style="opacity:0.7;fill:#FFFFFF;" d="M134.167,436.087H71.833c-7.18,0-13-5.82-13-13v-65.214h88.333v65.214
					C147.167,430.266,141.346,436.087,134.167,436.087z"/>
				<path style="opacity:0.9;fill:#FFFFFF;" d="M149.897,357.873H56.103c-1.346,0-2.436-1.091-2.436-2.436l0,0
					c0-1.346,1.091-2.436,2.436-2.436h93.794c1.345,0,2.436,1.091,2.436,2.436l0,0C152.333,356.782,151.242,357.873,149.897,357.873
					z"/>
				<rect x="58.833" y="357.873" style="opacity:0.3;fill:#21255C;" width="88.333" height="4.167"/>
				<g>
					<path style="fill:#99A3B0;" d="M82.125,371H70c-0.621,0-1.125-0.504-1.125-1.125l0,0c0-0.621,0.504-1.125,1.125-1.125h12.125
						c0.621,0,1.125,0.504,1.125,1.125l0,0C83.25,370.496,82.746,371,82.125,371z"/>
					<path style="fill:#99A3B0;" d="M89.717,366.52H70c-0.621,0-1.125-0.504-1.125-1.125l0,0c0-0.621,0.504-1.125,1.125-1.125
						h19.717c0.621,0,1.125,0.504,1.125,1.125l0,0C90.842,366.016,90.339,366.52,89.717,366.52z"/>
					<path style="fill:#99A3B0;" d="M82.125,375.833H70c-0.621,0-1.125-0.504-1.125-1.125l0,0c0-0.621,0.504-1.125,1.125-1.125
						h12.125c0.621,0,1.125,0.504,1.125,1.125l0,0C83.25,375.33,82.746,375.833,82.125,375.833z"/>
					<path style="fill:#99A3B0;" d="M82.125,380.667H70c-0.621,0-1.125-0.504-1.125-1.125l0,0c0-0.621,0.504-1.125,1.125-1.125
						h12.125c0.621,0,1.125,0.504,1.125,1.125l0,0C83.25,380.163,82.746,380.667,82.125,380.667z"/>
					<path style="fill:#99A3B0;" d="M89.717,385.5H70c-0.621,0-1.125-0.504-1.125-1.125l0,0c0-0.621,0.504-1.125,1.125-1.125h19.717
						c0.621,0,1.125,0.504,1.125,1.125l0,0C90.842,384.996,90.339,385.5,89.717,385.5z"/>
					<path style="fill:#99A3B0;" d="M82.125,390.333H70c-0.621,0-1.125-0.504-1.125-1.125l0,0c0-0.621,0.504-1.125,1.125-1.125
						h12.125c0.621,0,1.125,0.504,1.125,1.125l0,0C83.25,389.83,82.746,390.333,82.125,390.333z"/>
					<path style="fill:#99A3B0;" d="M82.125,395.167H70c-0.621,0-1.125-0.504-1.125-1.125l0,0c0-0.621,0.504-1.125,1.125-1.125
						h12.125c0.621,0,1.125,0.504,1.125,1.125l0,0C83.25,394.663,82.746,395.167,82.125,395.167z"/>
					<path style="fill:#99A3B0;" d="M82.125,400H70c-0.621,0-1.125-0.504-1.125-1.125l0,0c0-0.621,0.504-1.125,1.125-1.125h12.125
						c0.621,0,1.125,0.504,1.125,1.125l0,0C83.25,399.496,82.746,400,82.125,400z"/>
					<path style="fill:#99A3B0;" d="M89.717,404.833H70c-0.621,0-1.125-0.504-1.125-1.125l0,0c0-0.621,0.504-1.125,1.125-1.125
						h19.717c0.621,0,1.125,0.504,1.125,1.125l0,0C90.842,404.33,90.339,404.833,89.717,404.833z"/>
					<path style="fill:#99A3B0;" d="M82.125,409.667H70c-0.621,0-1.125-0.504-1.125-1.125l0,0c0-0.621,0.504-1.125,1.125-1.125
						h12.125c0.621,0,1.125,0.504,1.125,1.125l0,0C83.25,409.163,82.746,409.667,82.125,409.667z"/>
					<path style="fill:#99A3B0;" d="M82.125,414.5H70c-0.621,0-1.125-0.504-1.125-1.125l0,0c0-0.621,0.504-1.125,1.125-1.125h12.125
						c0.621,0,1.125,0.504,1.125,1.125l0,0C83.25,413.996,82.746,414.5,82.125,414.5z"/>
					<path style="fill:#99A3B0;" d="M82.125,419.333H70c-0.621,0-1.125-0.504-1.125-1.125l0,0c0-0.621,0.504-1.125,1.125-1.125
						h12.125c0.621,0,1.125,0.504,1.125,1.125l0,0C83.25,418.83,82.746,419.333,82.125,419.333z"/>
					<path style="fill:#99A3B0;" d="M89.717,424.167H70c-0.621,0-1.125-0.504-1.125-1.125l0,0c0-0.621,0.504-1.125,1.125-1.125
						h19.717c0.621,0,1.125,0.504,1.125,1.125l0,0C90.842,423.663,90.339,424.167,89.717,424.167z"/>
				</g>
				<g style="opacity:0.9;">
					<path style="fill:#FFFFFF;" d="M129.125,378.25L129.125,378.25c-3.383,0-6.125-2.742-6.125-6.125v-1.73
						c0-3.383,2.742-6.125,6.125-6.125l0,0c3.383,0,6.125,2.742,6.125,6.125v1.73C135.25,375.508,132.508,378.25,129.125,378.25z"/>
					<path style="fill:#FFFFFF;" d="M129.125,421.375L129.125,421.375c-3.383,0-6.125-2.742-6.125-6.125V390.5
						c0-3.383,2.742-6.125,6.125-6.125l0,0c3.383,0,6.125,2.742,6.125,6.125v24.75C135.25,418.633,132.508,421.375,129.125,421.375z
						"/>
				</g>
			</g>
			<g>
				<g>
					<g>
						<g>
							<path style="fill:#91B66A;" d="M521.472,304.429c1.508-4.768,1.133-9.691-0.668-14.033c-1.872-4.347-5.133-8.1-9.753-10.071
								h0h0c-1.122,2.508-1.548,5.16-1.557,7.683c-0.026,2.518,0.565,4.98,1.533,7.169
								C512.943,299.563,516.695,302.927,521.472,304.429L521.472,304.429L521.472,304.429z"/>
							<path style="fill:#638674;" d="M517.141,320.469c1.082-4.884,0.327-9.745-1.886-13.926
								c-2.158-4.144-5.828-7.629-10.591-9.188h0l0,0c-0.801,2.622-1.126,5.261-0.881,7.784c0.264,2.529,0.997,4.911,2.134,7.005
								C508.281,316.365,512.253,319.383,517.141,320.469L517.141,320.469L517.141,320.469z"/>
							<path style="fill:#91B66A;" d="M514.196,336.821c0.316-2.485,0.247-4.905-0.331-7.225c-0.548-2.314-1.426-4.498-2.724-6.485
								c-1.302-1.987-2.9-3.751-4.791-5.173c-1.899-1.421-4.098-2.501-6.539-3.069l0,0v0c-0.306,1.336-0.501,2.664-0.533,3.976
								c-0.014,1.316,0.096,2.606,0.32,3.851c0.224,1.245,0.562,2.444,1.005,3.58c0.475,1.141,1.056,2.219,1.727,3.216
								c1.344,1.995,3.058,3.666,5.058,4.913C509.4,335.655,511.718,336.485,514.196,336.821L514.196,336.821L514.196,336.821z"/>
							<path style="fill:#638674;" d="M512.687,353.367c0.065-1.251,0.002-2.479-0.178-3.678c-0.167-1.198-0.402-2.362-0.77-3.491
								c-0.723-2.257-1.891-4.368-3.287-6.229c-2.846-3.716-7.084-6.526-12.018-7.245h0h0c-0.369,2.716-0.166,5.381,0.455,7.819
								c0.691,2.447,1.839,4.673,3.322,6.542C503.21,350.837,507.701,353.135,512.687,353.367L512.687,353.367L512.687,353.367z"/>
							<path style="fill:#638674;" d="M521.472,304.429c1.514-4.787,4.99-8.4,9.231-10.155c4.187-1.801,9.164-1.735,13.763,0.227
								l0,0h0c-0.934,2.065-2.13,3.907-3.721,5.421c-1.607,1.507-3.409,2.767-5.472,3.673
								C531.133,305.392,526.256,305.933,521.472,304.429L521.472,304.429L521.472,304.429z"/>
							<path style="fill:#91B66A;" d="M517.141,320.469c1.086-4.904,4.28-8.789,8.311-10.917c4.098-2.132,8.968-2.529,13.73-0.969h0
								l0,0c-0.655,2.173-1.818,4.073-3.237,5.731c-1.399,1.663-3.154,3.055-5.148,4.132
								C526.905,320.612,522.037,321.558,517.141,320.469L517.141,320.469L517.141,320.469z"/>
							<path style="fill:#638674;" d="M514.196,336.821c0.316-2.486,1.253-4.765,2.48-6.738c1.257-1.97,2.98-3.607,4.882-4.848
								c1.898-1.244,4.098-2.068,6.42-2.433c2.315-0.367,4.746-0.277,7.186,0.291l0,0l0,0c-0.253,1.107-0.646,2.154-1.105,3.154
								c-0.441,1.003-0.99,1.949-1.632,2.835c-0.642,0.886-1.377,1.711-2.192,2.47c-0.783,0.765-1.645,1.464-2.576,2.088
								c-1.862,1.248-3.995,2.202-6.285,2.768C519.097,336.975,516.684,337.158,514.196,336.821L514.196,336.821L514.196,336.821z"
								/>
							<path style="fill:#91B66A;" d="M512.687,353.367c0.065-1.251,0.255-2.467,0.557-3.628c0.315-1.16,0.791-2.263,1.336-3.298
								c1.104-2.069,2.576-3.858,4.431-5.25c3.662-2.802,8.365-4.029,13.35-3.302l0,0l0,0c-0.301,2.25-1.05,4.329-2.217,6.199
								c-1.095,1.876-2.567,3.548-4.343,4.951C522.286,351.832,517.712,353.6,512.687,353.367L512.687,353.367L512.687,353.367z"/>
							<path style="fill:#638674;" d="M524.962,294.369c2.312-1.019,4.237-2.425,5.887-4.056c1.678-1.619,2.934-3.527,3.881-5.575
								c0.98-2.033,1.505-4.277,1.683-6.58c0.195-2.294-0.054-4.698-0.794-7.117v0l0,0c-2.374,0.726-4.511,1.955-6.331,3.538
								c-1.803,1.59-3.19,3.582-4.225,5.734c-1.002,2.167-1.503,4.561-1.579,6.944C523.436,289.652,523.96,292.096,524.962,294.369
								L524.962,294.369L524.962,294.369z"/>
							<g>
								<path style="fill:#456179;" d="M512.958,376.645c-0.153,0.012-0.367-1.189-0.624-3.378
									c-0.119-1.095-0.288-2.435-0.394-3.995c-0.08-1.564-0.171-3.344-0.271-5.311c-0.246-7.87,0.036-18.819,1.935-30.722
									c1.83-11.91,4.745-22.461,7.379-29.885c0.613-1.872,1.311-3.517,1.863-4.98c0.573-1.456,1.058-2.712,1.537-3.707
									c0.922-2.003,1.497-3.081,1.64-3.024c0.143,0.057-0.161,1.241-0.831,3.328c-0.353,1.037-0.717,2.329-1.175,3.815
									c-0.437,1.493-1.027,3.16-1.539,5.048c-2.233,7.49-4.87,17.971-6.679,29.742c-1.877,11.765-2.402,22.562-2.56,30.373
									c-0.022,1.955-0.041,3.724-0.058,5.278c0.006,1.554,0.012,2.893,0.016,3.99
									C513.188,375.411,513.111,376.633,512.958,376.645z"/>
							</g>
						</g>
						<g>
							<path style="fill:#91B66A;" d="M485.722,330.095c-1.427-3.079-4.532-4.982-8.28-5.421c-3.724-0.47-8.102,0.53-12.212,2.835
								l0,0l0,0c1.476,2.638,4.422,4.174,8.095,4.67C477.022,332.645,481.437,332.074,485.722,330.095L485.722,330.095
								L485.722,330.095z"/>
							<path style="fill:#638674;" d="M490.097,340.436c-1.207-3.172-4.197-5.273-7.883-5.979
								c-3.724-0.706-8.113-0.033-12.378,1.987h0h0c0.622,1.383,1.678,2.485,2.996,3.357c1.308,0.876,2.932,1.498,4.766,1.86
								C481.214,342.396,485.686,342.118,490.097,340.436L490.097,340.436L490.097,340.436z"/>
							<path style="fill:#91B66A;" d="M493.757,351.051c-1.001-3.243-3.817-5.551-7.465-6.5c-3.622-0.976-8.112-0.579-12.49,1.138h0
								l0,0c0.568,1.407,1.508,2.593,2.762,3.554c1.274,0.953,2.848,1.686,4.624,2.182
								C484.77,352.397,489.254,352.423,493.757,351.051L493.757,351.051L493.757,351.051z"/>
							<path style="fill:#638674;" d="M496.672,361.894c-0.381-1.651-1.223-3.108-2.449-4.289c-1.21-1.186-2.741-2.111-4.546-2.708
								c-3.587-1.209-8.012-1.145-12.526,0.278h0l0,0c0.442,1.45,1.3,2.697,2.514,3.733c1.177,1.045,2.691,1.886,4.455,2.495
								C487.628,362.617,492.064,362.96,496.672,361.894L496.672,361.894L496.672,361.894z"/>
							<path style="fill:#638674;" d="M485.722,330.095c-1.421-3.065-1.082-6.638,0.565-10.109c1.686-3.473,4.659-6.835,8.781-9.145
								l0,0l0,0c1.831,3.272,1.695,7.189-0.047,10.69C493.315,325.031,490.004,328.117,485.722,330.095L485.722,330.095
								L485.722,330.095z"/>
							<path style="fill:#91B66A;" d="M490.097,340.436c-1.202-3.158-0.641-6.69,1.263-10.049c1.878-3.33,5.125-6.501,9.39-8.52l0,0
								l0,0c0.773,1.703,1.1,3.516,0.946,5.338c-0.164,1.826-0.756,3.637-1.724,5.318
								C497.99,335.914,494.503,338.755,490.097,340.436L490.097,340.436L490.097,340.436z"/>
							<path style="fill:#638674;" d="M493.757,351.051c-0.997-3.229-0.173-6.722,1.937-9.936c2.147-3.211,5.537-6.126,9.945-7.855
								l0,0l0,0c0.696,1.736,0.861,3.581,0.58,5.388c-0.26,1.801-0.978,3.568-2.087,5.189
								C501.95,347.076,498.281,349.671,493.757,351.051L493.757,351.051L493.757,351.051z"/>
							<path style="fill:#91B66A;" d="M496.672,361.894c-0.38-1.65-0.292-3.328,0.147-4.975c0.456-1.65,1.327-3.284,2.472-4.807
								c2.321-3.045,5.984-5.747,10.471-7.162h0l0,0c0.548,1.788,0.587,3.64,0.213,5.416c-0.411,1.787-1.254,3.503-2.445,5.038
								C505.132,358.487,501.259,360.833,496.672,361.894L496.672,361.894L496.672,361.894z"/>
							<path style="fill:#638674;" d="M482.553,323.634c0.916-1.823,1.385-3.668,1.381-5.391c-0.018-1.714-0.432-3.346-1.257-4.738
								c-0.841-1.382-2.016-2.568-3.53-3.401c-1.523-0.828-3.335-1.333-5.373-1.418l0,0v0
								C470.888,316.374,474.456,322.409,482.553,323.634L482.553,323.634L482.553,323.634z"/>
							<g>
								<path style="fill:#456179;" d="M499.51,377.37c-0.652,0.093-2.439-12.921-7.453-28.221
									c-4.888-15.338-10.97-26.979-10.427-27.263c0.247-0.134,2.072,2.618,4.515,7.358c2.446,4.734,5.404,11.509,7.901,19.263
									c2.533,7.744,4.03,14.988,4.829,20.254c0.382,2.639,0.63,4.78,0.701,6.272C499.67,376.522,499.653,377.351,499.51,377.37z"
									/>
							</g>
						</g>
					</g>
					<g>
						<rect x="468.515" y="362.598" style="fill:#A64F5A;" width="72.667" height="13.848"/>
						<polygon style="fill:#8C404C;" points="522.993,436.087 486.704,436.087 472.625,376.447 537.071,376.447 						"/>
						<polygon style="opacity:0.3;fill:#21255C;" points="537.071,376.447 472.625,376.447 474.01,382.313 535.686,382.313 						
							"/>
					</g>
				</g>
				<g>
					<path style="fill:#7DD3E9;" d="M432.999,430.095c-3.859,0-7-3.141-7-7v-23.814h76.334v23.814c0,3.859-3.141,7-7,7H432.999z"/>
					<path style="opacity:0.7;fill:#FFFFFF;" d="M495.333,436.095H433c-7.18,0-13-5.82-13-13v-34.69h88.333v34.69
						C508.333,430.275,502.513,436.095,495.333,436.095z"/>
					<path style="opacity:0.9;fill:#FFFFFF;" d="M511.063,388.405h-93.794c-1.346,0-2.436-1.091-2.436-2.436l0,0
						c0-1.346,1.091-2.436,2.436-2.436h93.794c1.346,0,2.436,1.091,2.436,2.436l0,0C513.5,387.314,512.409,388.405,511.063,388.405z
						"/>
					<rect x="420" y="388.405" style="opacity:0.3;fill:#21255C;" width="88.333" height="4.167"/>
					<g style="opacity:0.9;">
						<path style="fill:#FFFFFF;" d="M490.764,404.45h-4.196c-2.224,0-4.027-1.803-4.027-4.027l0,0c0-2.224,1.803-4.027,4.027-4.027
							h4.196c2.224,0,4.027,1.803,4.027,4.027l0,0C494.791,402.647,492.988,404.45,490.764,404.45z"/>
						<path style="fill:#FFFFFF;" d="M490.764,429.294h-4.196c-2.224,0-4.027-1.803-4.027-4.027v-13.261
							c0-2.224,1.803-4.027,4.027-4.027h4.196c2.224,0,4.027,1.803,4.027,4.027v13.261
							C494.791,427.491,492.988,429.294,490.764,429.294z"/>
					</g>
				</g>
			</g>
			<g>
				<circle style="fill:#FFFFFF;" cx="163.664" cy="188.978" r="91.429"/>
				<g>
					<g>
						
							<rect x="147.392" y="192.124" transform="matrix(0.7071 -0.7071 0.7071 0.7071 -100.9041 164.7774)" style="fill:#CC6164;" width="2.119" height="24.134"/>
						
							<rect x="152.463" y="181.502" transform="matrix(0.7071 -0.7071 0.7071 0.7071 -95.8343 166.8861)" style="fill:#CC6164;" width="2.119" height="35.236"/>
						
							<rect x="157.534" y="174.312" transform="matrix(0.7071 -0.7071 0.7071 0.7071 -90.7625 168.9781)" style="fill:#CC6164;" width="2.119" height="39.473"/>
						
							<rect x="162.605" y="168.792" transform="matrix(0.7071 -0.7071 0.7071 0.7071 -85.6917 171.0783)" style="fill:#CC6164;" width="2.119" height="40.372"/>
						
							<rect x="167.676" y="164.171" transform="matrix(0.7071 -0.7071 0.7071 0.7071 -80.6209 173.1786)" style="fill:#CC6164;" width="2.119" height="39.473"/>
						
							<rect x="172.746" y="161.219" transform="matrix(0.7071 -0.7071 0.7071 0.7071 -75.55 175.271)" style="fill:#CC6164;" width="2.119" height="35.236"/>
						
							<rect x="177.817" y="161.699" transform="matrix(0.7071 -0.7071 0.7071 0.7071 -70.4794 177.3797)" style="fill:#CC6164;" width="2.119" height="24.134"/>
					</g>
					<g>
						
							<rect x="128.284" y="211.232" transform="matrix(-0.7071 0.7071 -0.7071 -0.7071 378.6992 289.7362)" style="fill:#CC6164;" width="2.119" height="24.134"/>
						
							<rect x="123.213" y="210.752" transform="matrix(-0.7071 0.7071 -0.7071 -0.7071 373.6259 301.9864)" style="fill:#CC6164;" width="2.119" height="35.236"/>
						
							<rect x="118.142" y="213.704" transform="matrix(-0.7071 0.7071 -0.7071 -0.7071 368.5576 314.22)" style="fill:#CC6164;" width="2.119" height="39.473"/>
					</g>
					<g>
						
							<rect x="196.926" y="142.59" transform="matrix(0.7071 -0.7071 0.7071 0.7071 -51.3708 185.2947)" style="fill:#CC6164;" width="2.119" height="24.134"/>
						
							<rect x="201.997" y="131.969" transform="matrix(0.7071 -0.7071 0.7071 0.7071 -46.2987 187.4034)" style="fill:#CC6164;" width="2.119" height="35.236"/>
						
							<rect x="207.067" y="124.779" transform="matrix(0.7071 -0.7071 0.7071 0.7071 -41.2292 189.4955)" style="fill:#CC6164;" width="2.119" height="39.473"/>
					</g>
					<g>
						<path style="fill:#7DD3E9;" d="M142.152,210.491c-2.456-12.045,1.186-24.253,9.979-33.046
							c8.793-8.793,21.001-12.435,33.046-9.979c-0.153-0.748-0.324-1.496-0.524-2.242c-0.532-1.984-0.92-3.977-1.178-5.968
							c-13.548-1.753-26.99,2.771-36.876,12.657c-9.886,9.886-14.41,23.328-12.657,36.876c1.991,0.258,3.984,0.646,5.968,1.178
							C140.656,210.167,141.404,210.338,142.152,210.491z"/>
						<path style="fill:#7DD3E9;" d="M191.685,160.957c0.153,0.748,0.324,1.496,0.524,2.242c0.532,1.984,0.92,3.977,1.178,5.968
							c13.548,1.753,26.99-2.771,36.876-12.657l-5.532-5.532C215.938,159.771,203.73,163.414,191.685,160.957z"/>
						<path style="fill:#7DD3E9;" d="M135.643,216.999c2.456,12.045-1.186,24.253-9.979,33.046l5.532,5.532
							c9.886-9.886,14.41-23.328,12.657-36.876c-1.991-0.258-3.984-0.646-5.968-1.178
							C137.139,217.323,136.391,217.152,135.643,216.999z"/>
					</g>
					<path style="fill:#5FA5CC;" d="M183.475,159.256c0.257,1.991,0.646,3.984,1.178,5.968c0.2,0.746,0.371,1.494,0.524,2.242
						c2.456,12.045-1.186,24.253-9.979,33.046c-8.793,8.793-21.001,12.435-33.046,9.979c-0.748-0.153-1.496-0.324-2.242-0.524
						c-1.984-0.532-3.977-0.92-5.968-1.178c-13.548-1.752-26.99,2.771-36.876,12.657l5.532,5.532
						c8.793-8.793,21.001-12.435,33.046-9.979c0.748,0.153,1.496,0.324,2.242,0.524c1.984,0.532,3.977,0.92,5.968,1.178
						c13.548,1.752,26.99-2.771,36.876-12.657c9.886-9.886,14.41-23.328,12.657-36.876c-0.258-1.991-0.646-3.984-1.178-5.968
						c-0.2-0.746-0.371-1.494-0.524-2.242c-2.456-12.045,1.186-24.253,9.979-33.046l-5.532-5.532
						C186.246,132.265,181.723,145.708,183.475,159.256z"/>
				</g>
				<g>
					<path style="fill:#7DD3E9;" d="M115.039,192.967c0,3.398-2.755,6.153-6.153,6.153c-3.398,0-6.153-2.755-6.153-6.153
						c0-3.398,2.755-6.153,6.153-6.153C112.284,186.813,115.039,189.568,115.039,192.967z"/>
					<path style="fill:#5FA5CC;" d="M119.202,174.117c0,2.092-1.696,3.788-3.788,3.788c-2.092,0-3.788-1.696-3.788-3.788
						c0-2.092,1.696-3.788,3.788-3.788C117.506,170.329,119.202,172.025,119.202,174.117z"/>
					<path style="fill:#5FA5CC;" d="M115.039,151.067c0,1.699-1.378,3.077-3.077,3.077c-1.699,0-3.077-1.378-3.077-3.077
						s1.377-3.077,3.077-3.077C113.662,147.991,115.039,149.368,115.039,151.067z"/>
					<path style="fill:#7DD3E9;" d="M134.944,147.316c0,1.547-1.254,2.8-2.8,2.8c-1.547,0-2.8-1.254-2.8-2.8
						c0-1.546,1.254-2.8,2.8-2.8C133.69,144.516,134.944,145.77,134.944,147.316z"/>
					<path style="fill:#7DD3E9;" d="M157.103,137.968c0,3.112-2.523,5.635-5.635,5.635c-3.112,0-5.635-2.523-5.635-5.635
						c0-3.112,2.523-5.635,5.635-5.635C154.58,132.333,157.103,134.856,157.103,137.968z"/>
					<path style="fill:#7DD3E9;" d="M221.063,193.456c0,2.786-2.258,5.044-5.044,5.044s-5.044-2.258-5.044-5.044
						c0-2.786,2.258-5.044,5.044-5.044S221.063,190.67,221.063,193.456z"/>
					<path style="fill:#5FA5CC;" d="M229.099,221.841c0,1.753-1.421,3.174-3.174,3.174c-1.753,0-3.174-1.421-3.174-3.174
						c0-1.753,1.421-3.174,3.174-3.174C227.677,218.667,229.099,220.088,229.099,221.841z"/>
					<circle style="fill:#5FA5CC;" cx="201.089" cy="221.007" r="4.008"/>
					
						<ellipse transform="matrix(0.2152 -0.9766 0.9766 0.2152 -3.1451 413.515)" style="fill:#7DD3E9;" cx="255.714" cy="208.714" rx="10.214" ry="10.214"/>
					<circle style="fill:#7DD3E9;" cx="239.338" cy="179.912" r="4.588"/>
					<path style="fill:#7DD3E9;" d="M180.223,242.209c0,1.772-1.437,3.209-3.209,3.209s-3.209-1.437-3.209-3.209
						c0-1.772,1.437-3.209,3.209-3.209S180.223,240.437,180.223,242.209z"/>
				</g>
				<g>
					<path style="fill:#7DD3E9;" d="M104.4,151.497c-0.384,0-0.768-0.146-1.061-0.439l-31.112-31.112
						c-0.586-0.585-0.586-1.536,0-2.121c0.586-0.586,1.535-0.586,2.121,0l31.112,31.112c0.586,0.586,0.586,1.536,0,2.121
						C105.168,151.351,104.784,151.497,104.4,151.497z"/>
				</g>
				<g>
					<path style="fill:#7DD3E9;" d="M145.072,118.523c-0.597,0-1.162-0.359-1.395-0.948l-16.202-40.909
						c-0.305-0.77,0.072-1.642,0.842-1.947c0.77-0.306,1.641,0.072,1.947,0.842l16.202,40.909c0.305,0.77-0.072,1.642-0.842,1.947
						C145.443,118.489,145.256,118.523,145.072,118.523z"/>
				</g>
				<g>
					<rect x="143.417" y="58.75" style="fill:#FFFFFF;" width="30.167" height="2.667"/>
					<rect x="143.417" y="63.833" style="fill:#FFFFFF;" width="30.167" height="2.667"/>
					<rect x="143.417" y="68.917" style="fill:#FFFFFF;" width="17.5" height="2.667"/>
				</g>
				<g>
					<rect x="220.167" y="67.334" style="fill:#FFFFFF;" width="30.167" height="2.667"/>
					<rect x="220.167" y="72.333" style="fill:#FFFFFF;" width="30.167" height="2.667"/>
					<rect x="220.167" y="77.333" style="fill:#FFFFFF;" width="30.167" height="2.667"/>
					<rect x="220.167" y="82.333" style="fill:#FFFFFF;" width="20.458" height="2.667"/>
				</g>
				<circle style="fill:#5FA5CC;" cx="77.751" cy="239.288" r="10.918"/>
				<circle style="fill:#5FA5CC;" cx="155.415" cy="305.361" r="8.249"/>
				<circle style="fill:#7DD3E9;" cx="180.632" cy="297.183" r="3.618"/>
				<path style="fill:#FFFFFF;" d="M73.287,104.978c3.84,3.84,3.84,10.066,0,13.906c-3.84,3.84-10.066,3.84-13.906,0
					c-3.84-3.84-3.84-10.066,0-13.906C63.221,101.138,69.447,101.138,73.287,104.978z"/>
				<path style="fill:#FFFFFF;" d="M134.392,63.351c2,5.049-0.472,10.764-5.522,12.763c-5.049,2-10.764-0.472-12.763-5.522
					c-2-5.049,0.472-10.764,5.522-12.763C126.678,55.83,132.392,58.302,134.392,63.351z"/>
			</g>
			<g>
				<circle style="fill:#FFFFFF;" cx="449.958" cy="150" r="66.201"/>
				<g>
					<path style="fill:#7DD3E9;" d="M498.625,150c0-5.236-8.629-9.226-20.619-11.617c6.787-10.169,10.067-19.093,6.365-22.795
						c-3.705-3.703-12.628-0.424-22.795,6.364c-2.391-11.989-6.382-20.617-11.618-20.617c-5.236,0-9.226,8.629-11.617,20.62
						c-10.169-6.787-19.092-10.067-22.795-6.366c-3.702,3.703-0.423,12.626,6.365,22.795c-11.99,2.391-20.619,6.382-20.619,11.618
						s8.629,9.226,20.619,11.618c-6.787,10.169-10.067,19.092-6.365,22.795c1.057,1.057,2.539,1.545,4.354,1.545
						c4.543,0,11.174-3.061,18.44-7.911c2.391,11.991,6.382,20.62,11.617,20.62c5.236,0,9.227-8.629,11.618-20.619
						c7.266,4.85,13.897,7.911,18.441,7.91c1.814,0,3.298-0.488,4.354-1.545c3.702-3.703,0.422-12.626-6.365-22.795
						C489.996,159.226,498.625,155.236,498.625,150z M479.912,115.995c1.339,0,2.371,0.333,3.045,1.007
						c2.607,2.608,0.105,10.556-6.999,20.993c-3.885-0.695-8.073-1.23-12.401-1.593c-0.364-4.327-0.898-8.513-1.593-12.397
						C469.701,118.739,476.073,115.995,479.912,115.995z M462.125,150c0,1.706-0.024,3.376-0.07,5.011
						c-1.124,1.188-2.288,2.386-3.494,3.592c-1.206,1.206-2.404,2.37-3.592,3.494c-1.635,0.046-3.305,0.07-5.011,0.07
						c-1.706,0-3.376-0.024-5.01-0.07c-1.188-1.124-2.386-2.288-3.592-3.494c-1.206-1.206-2.37-2.404-3.494-3.592
						c-0.046-1.635-0.07-3.305-0.07-5.011s0.024-3.376,0.07-5.011c1.124-1.188,2.288-2.386,3.494-3.592
						c1.21-1.21,2.409-2.367,3.602-3.494c1.632-0.045,3.299-0.07,5.001-0.07c1.702,0,3.37,0.024,5.002,0.07
						c1.192,1.128,2.392,2.284,3.602,3.494c1.206,1.206,2.37,2.404,3.494,3.592C462.1,146.624,462.125,148.294,462.125,150z
						 M459.975,139.983c-0.662-0.662-1.333-1.317-2.007-1.968c1.279,0.058,2.532,0.13,3.761,0.215
						c0.085,1.229,0.157,2.482,0.215,3.76C461.292,141.316,460.637,140.645,459.975,139.983z M455.781,135.941
						c-1.423-1.325-2.863-2.621-4.312-3.877c3.045-2.585,5.978-4.866,8.758-6.842c0.568,3.36,1.027,7.05,1.352,11.027
						C459.664,136.112,457.727,136.01,455.781,135.941z M452.766,135.861c-0.936-0.016-1.873-0.027-2.808-0.027
						c-0.935,0-1.871,0.011-2.807,0.027c0.944-0.863,1.88-1.694,2.807-2.502C450.886,134.167,451.821,134.998,452.766,135.861z
						 M444.134,135.941c-1.946,0.069-3.882,0.171-5.797,0.308c0.325-3.976,0.784-7.667,1.352-11.026
						c2.78,1.975,5.712,4.257,8.757,6.841C446.997,133.32,445.557,134.615,444.134,135.941z M441.948,138.014
						c-0.674,0.651-1.345,1.307-2.007,1.969c-0.662,0.662-1.317,1.333-1.969,2.007c0.058-1.279,0.13-2.532,0.215-3.76
						C439.416,138.145,440.669,138.072,441.948,138.014z M435.899,144.177c-1.327,1.425-2.624,2.866-3.882,4.317
						c-2.584-3.045-4.872-5.982-6.848-8.761c3.363-0.569,7.057-1.028,11.037-1.354C436.07,140.294,435.968,142.231,435.899,144.177z
						 M435.819,147.189c-0.016,0.937-0.027,1.875-0.027,2.811s0.011,1.874,0.027,2.811c-0.863-0.945-1.698-1.883-2.507-2.811
						C434.121,149.071,434.955,148.134,435.819,147.189z M435.899,155.823c0.069,1.946,0.171,3.882,0.308,5.798
						c-3.98-0.325-7.675-0.785-11.037-1.354c1.976-2.78,4.263-5.717,6.848-8.761C433.275,152.957,434.572,154.399,435.899,155.823z
						 M437.973,158.01c0.651,0.674,1.306,1.345,1.969,2.007c0.662,0.662,1.332,1.317,2.007,1.969
						c-1.279-0.058-2.531-0.131-3.76-0.215C438.103,160.542,438.031,159.289,437.973,158.01z M444.131,164.059
						c1.425,1.328,2.869,2.624,4.32,3.882c-3.044,2.584-5.981,4.871-8.761,6.847c-0.568-3.362-1.028-7.057-1.353-11.037
						C440.251,163.888,442.186,163.99,444.131,164.059z M447.147,164.139c0.937,0.016,1.875,0.027,2.811,0.027
						s1.874-0.011,2.811-0.027c-0.945,0.863-1.883,1.698-2.811,2.507C449.029,165.837,448.092,165.003,447.147,164.139z
						 M455.785,164.059c1.945-0.069,3.88-0.171,5.794-0.308c-0.326,3.981-0.785,7.675-1.354,11.038
						c-2.78-1.976-5.717-4.264-8.761-6.848C452.916,166.683,454.36,165.387,455.785,164.059z M457.969,161.986
						c0.674-0.651,1.345-1.307,2.007-1.968c0.662-0.662,1.317-1.333,1.969-2.007c-0.058,1.279-0.13,2.532-0.215,3.76
						C460.5,161.855,459.247,161.928,457.969,161.986z M464.017,155.823c1.327-1.425,2.624-2.866,3.882-4.317
						c2.584,3.045,4.872,5.982,6.848,8.761c-3.363,0.568-7.057,1.028-11.037,1.353C463.846,159.706,463.948,157.769,464.017,155.823
						z M464.098,152.811c0.016-0.937,0.027-1.875,0.027-2.811s-0.011-1.874-0.027-2.811c0.863,0.945,1.698,1.883,2.507,2.811
						C465.796,150.929,464.961,151.866,464.098,152.811z M464.017,144.177c-0.069-1.946-0.171-3.882-0.308-5.798
						c3.98,0.325,7.675,0.785,11.037,1.353c-1.976,2.78-4.263,5.717-6.848,8.761C466.642,147.043,465.344,145.601,464.017,144.177z
						 M449.958,103.334c3.688,0,7.538,7.389,9.895,19.791c-3.239,2.256-6.578,4.84-9.896,7.643
						c-3.317-2.803-6.656-5.386-9.894-7.641C442.42,110.724,446.27,103.334,449.958,103.334z M416.96,117.002
						c0.675-0.674,1.705-1.007,3.044-1.007c3.839,0,10.212,2.745,17.948,8.01c-0.695,3.883-1.229,8.07-1.592,12.397
						c-4.328,0.364-8.516,0.898-12.401,1.593C416.855,127.558,414.352,119.609,416.96,117.002z M403.292,150
						c0-3.688,7.39-7.538,19.792-9.895c2.255,3.238,4.839,6.578,7.642,9.895c-2.803,3.317-5.387,6.657-7.642,9.895
						C410.681,157.538,403.292,153.688,403.292,150z M416.96,182.999c-2.607-2.608-0.105-10.556,6.999-20.993
						c3.885,0.695,8.073,1.23,12.401,1.593c0.364,4.328,0.898,8.516,1.593,12.4C427.515,183.103,419.567,185.607,416.96,182.999z
						 M449.958,196.667c-3.688,0-7.538-7.391-9.895-19.796c3.239-2.255,6.577-4.837,9.895-7.641
						c3.318,2.804,6.657,5.386,9.896,7.641C457.497,189.276,453.646,196.667,449.958,196.667z M482.957,182.999
						c-2.61,2.608-10.558,0.106-20.993-6.998c0.695-3.885,1.23-8.074,1.593-12.402c4.328-0.364,8.516-0.898,12.401-1.593
						C483.062,172.442,485.564,180.391,482.957,182.999z M476.832,159.895c-2.255-3.238-4.839-6.578-7.642-9.895
						c2.803-3.317,5.387-6.657,7.642-9.895c12.403,2.357,19.793,6.207,19.793,9.895S489.235,157.538,476.832,159.895z"/>
					<circle style="fill:#5FA5CC;" cx="429.875" cy="118.625" r="4"/>
					<circle style="fill:#5FA5CC;" cx="457.875" cy="112.375" r="3"/>
					<circle style="fill:#5FA5CC;" cx="449.958" cy="150" r="4.458"/>
					<path style="fill:#5FA5CC;" d="M434.311,182.25c0,3.14-2.546,5.686-5.686,5.686c-3.14,0-5.686-2.546-5.686-5.686
						s2.546-5.686,5.686-5.686C431.765,176.564,434.311,179.11,434.311,182.25z"/>
					<path style="fill:#5FA5CC;" d="M491.916,157.729c0,1.806-1.464,3.271-3.271,3.271s-3.271-1.464-3.271-3.271
						c0-1.807,1.464-3.271,3.271-3.271S491.916,155.923,491.916,157.729z"/>
				</g>
				<g>
					<path style="fill:#7DD3E9;" d="M476.999,239.309c-0.384,0-0.768-0.146-1.061-0.439l-31.112-31.113
						c-0.586-0.585-0.586-1.536,0-2.121c0.586-0.586,1.535-0.586,2.121,0l31.112,31.113c0.586,0.585,0.586,1.536,0,2.121
						C477.767,239.162,477.383,239.309,476.999,239.309z"/>
				</g>
				<g>
					<path style="fill:#7DD3E9;" d="M511.323,198.839c-0.207,0-0.418-0.044-0.619-0.135l-13.81-6.272
						c-0.755-0.343-1.088-1.232-0.746-1.986c0.343-0.754,1.23-1.088,1.986-0.746l13.809,6.272c0.755,0.343,1.088,1.232,0.746,1.986
						C512.438,198.512,511.894,198.839,511.323,198.839z"/>
				</g>
				<g>
					<rect x="500.868" y="238.538" style="fill:#FFFFFF;" width="30.167" height="2.667"/>
					<rect x="500.868" y="243.621" style="fill:#FFFFFF;" width="30.167" height="2.667"/>
					<rect x="500.868" y="248.705" style="fill:#FFFFFF;" width="17.5" height="2.667"/>
				</g>
				<path style="fill:#FFFFFF;" d="M476.999,251.715c-3.84-3.84-3.84-10.066,0-13.906c3.84-3.84,10.066-3.84,13.906,0
					c3.84,3.84,3.84,10.066,0,13.906C487.065,255.555,480.839,255.555,476.999,251.715z"/>
				<path style="fill:#FFFFFF;" d="M514.462,205.699c-3.175-1.442-4.58-5.185-3.138-8.361c1.442-3.175,5.185-4.58,8.361-3.138
					c3.175,1.442,4.58,5.185,3.138,8.361C521.381,205.737,517.638,207.142,514.462,205.699z"/>
			</g>
			<g>
				<circle style="fill:#7DD3E9;" cx="392.938" cy="105.938" r="5.687"/>
				<circle style="fill:#5FA5CC;" cx="416.625" cy="83.875" r="2.375"/>
				<circle style="fill:#7DD3E9;" cx="453.958" cy="74.5" r="4"/>
				<circle style="fill:#5FA5CC;" cx="510.982" cy="105.813" r="6.563"/>
				<circle style="fill:#7DD3E9;" cx="512.58" cy="130.574" r="3.58"/>
				<circle style="fill:#7DD3E9;" cx="487.01" cy="86.385" r="1.635"/>
				<circle style="fill:#7DD3E9;" cx="384" cy="185.422" r="5.75"/>
				<path style="fill:#5FA5CC;" d="M388.333,166.973c0,1.565-1.268,2.833-2.833,2.833c-1.565,0-2.833-1.269-2.833-2.833
					s1.268-2.833,2.833-2.833C387.065,164.139,388.333,165.408,388.333,166.973z"/>
				<circle style="fill:#5FA5CC;" cx="404.45" cy="196.792" r="3.158"/>
			</g>
		</g>
	</g>
</g>
</svg>
