<?xml version="1.0" standalone="no"?>
<!DOCTYPE svg PUBLIC "-//W3C//DTD SVG 20010904//EN"
 "http://www.w3.org/TR/2001/REC-SVG-20010904/DTD/svg10.dtd">
<svg version="1.0" xmlns="http://www.w3.org/2000/svg"
 width="1024.000000pt" height="1024.000000pt" viewBox="0 0 1024.000000 1024.000000"
 preserveAspectRatio="xMidYMid meet">

<g transform="translate(0.000000,1024.000000) scale(0.100000,-0.100000)"
fill="#000000" stroke="none">
<path d="M8110 8603 c-74 -13 -194 -49 -274 -82 -50 -20 -226 -81 -391 -135
-358 -117 -452 -150 -525 -185 -49 -24 -56 -31 -63 -66 -20 -92 -73 -179 -226
-370 -112 -140 -316 -353 -448 -467 -106 -92 -105 -80 -18 -188 73 -91 130
-119 362 -179 103 -27 193 -50 198 -52 27 -8 59 20 113 99 33 48 69 106 80
129 12 23 46 68 76 100 30 33 58 72 62 88 4 15 34 58 67 94 33 36 82 100 110
141 50 75 124 160 140 160 4 0 25 -13 45 -29 20 -16 90 -59 156 -95 l119 -66
89 76 c101 86 85 87 184 -9 l61 -59 54 49 c29 26 78 71 109 100 l55 51 40 -21
c55 -28 186 -75 243 -87 26 -6 57 -12 70 -15 23 -6 23 -6 -4 37 -53 83 -95
190 -101 255 -6 61 -5 65 41 143 31 54 45 88 41 101 -4 10 -26 33 -51 49 -24
17 -44 32 -44 34 0 2 9 24 21 50 34 78 26 95 -61 132 -97 42 -152 89 -169 146
-19 64 -36 78 -90 77 -25 -1 -57 -4 -71 -6z"/>
<path d="M3880 8028 c0 -27 2 -28 55 -28 l55 0 0 -185 0 -185 35 0 35 0 0 185
0 185 55 0 c53 0 55 1 55 28 l0 27 -145 0 -145 0 0 -27z"/>
<path d="M4240 7927 c-13 -7 -31 -25 -40 -40 -13 -24 -13 -29 0 -37 23 -15 34
-12 45 12 25 57 115 40 115 -22 0 -28 -3 -30 -37 -30 -92 0 -147 -36 -147 -95
0 -83 121 -124 172 -58 11 15 12 15 12 -5 0 -18 6 -22 30 -22 l30 0 0 115 c0
128 -12 169 -56 185 -35 14 -94 12 -124 -3z m120 -179 c0 -43 -34 -78 -76 -78
-39 0 -57 19 -52 57 2 22 11 31 38 40 19 7 47 12 63 12 24 1 27 -3 27 -31z"/>
<path d="M4586 7919 c-21 -17 -26 -18 -26 -5 0 11 -9 16 -30 16 l-30 0 0 -150
0 -150 29 0 29 0 4 115 c3 123 9 138 60 150 21 5 33 1 52 -19 25 -24 26 -30
26 -136 l0 -110 25 0 25 0 0 120 c0 66 -5 130 -11 143 -22 49 -106 63 -153 26z"/>
<path d="M4905 7930 c-47 -19 -85 -84 -85 -143 1 -44 33 -112 64 -132 40 -26
111 -23 142 6 l27 24 -6 -49 c-6 -63 -33 -91 -87 -91 -29 0 -46 7 -68 28 -25
24 -30 26 -48 13 -19 -14 -19 -15 5 -40 47 -50 157 -61 203 -20 41 37 48 74
48 247 l0 164 -25 -5 c-17 -3 -25 -11 -25 -26 -1 -18 -2 -19 -13 -5 -27 36
-86 49 -132 29z m117 -57 c36 -33 35 -136 -3 -174 -28 -28 -84 -25 -114 6 -20
19 -25 34 -25 77 0 58 18 93 54 108 26 11 65 4 88 -17z"/>
<path d="M5255 7931 c-77 -34 -105 -152 -58 -244 20 -39 93 -71 140 -62 46 8
77 29 91 60 10 21 8 25 -9 30 -14 5 -27 -1 -44 -19 -28 -30 -78 -35 -112 -11
-22 15 -46 69 -36 79 4 3 53 6 110 6 l103 0 0 30 c0 39 -22 90 -49 114 -23 21
-104 31 -136 17z m103 -48 c12 -10 24 -30 28 -45 l6 -28 -81 0 c-75 0 -81 2
-81 20 0 31 44 70 78 70 17 0 39 -8 50 -17z"/>
<path d="M5614 7928 c-12 -5 -27 -20 -32 -32 -10 -20 -11 -20 -11 7 -1 23 -5
27 -31 27 l-30 0 0 -150 0 -150 30 0 30 0 0 100 c0 94 2 103 25 125 13 14 33
25 45 25 16 0 20 6 20 30 0 32 -10 36 -46 18z"/>
<path d="M8146 7590 c-110 -98 -111 -98 -120 -155 -4 -22 -25 -78 -46 -125
-29 -64 -46 -125 -70 -250 -17 -90 -38 -179 -45 -197 -8 -18 -43 -70 -78 -117
-78 -101 -127 -198 -135 -261 -10 -89 32 -139 199 -243 177 -111 222 -118 684
-102 193 7 353 15 356 19 4 3 -9 58 -28 121 -44 149 -190 721 -198 782 -9 60
7 133 51 231 43 95 41 121 -14 181 -21 23 -44 50 -52 62 -11 16 -37 26 -100
38 -47 10 -132 36 -190 59 -58 23 -107 43 -110 44 -3 1 -50 -38 -104 -87z"/>
<path d="M7333 7627 c-22 -23 -59 -70 -82 -104 -22 -34 -70 -96 -106 -138 -36
-43 -68 -89 -71 -104 -4 -14 -31 -51 -60 -81 -29 -30 -68 -82 -86 -115 -51
-93 -129 -201 -158 -219 -26 -15 -72 -113 -98 -209 l-11 -37 52 -27 c29 -14
80 -45 113 -69 34 -24 66 -44 73 -44 6 0 30 9 53 20 24 10 72 22 108 25 36 3
70 9 76 13 6 4 23 42 39 85 15 42 30 77 33 77 3 0 22 -18 42 -40 49 -53 78
-53 131 1 40 41 42 41 94 36 29 -3 81 -17 116 -32 94 -39 94 -39 106 -13 6 13
36 57 68 98 82 108 91 130 124 307 16 89 41 189 56 224 88 209 88 199 1 281
l-71 67 -87 -75 c-48 -41 -91 -74 -95 -74 -14 0 -276 150 -299 171 -20 19 -21
18 -61 -24z"/>
<path d="M2387 7318 c-9 -7 -25 -38 -37 -70 -24 -64 -163 -229 -208 -246 -15
-5 -45 -16 -67 -24 -51 -18 -79 -64 -79 -130 0 -32 7 -57 21 -75 19 -27 19
-29 3 -78 -39 -116 -128 -260 -210 -340 l-51 -50 -80 2 c-61 2 -80 0 -77 -10
8 -23 97 -75 165 -95 37 -12 83 -32 101 -45 55 -41 149 -155 212 -258 80 -128
83 -130 123 -91 19 18 78 49 147 77 63 26 141 65 172 86 34 23 87 47 128 58
39 10 98 35 130 55 37 23 83 42 120 48 l60 12 0 60 0 61 -96 35 c-52 19 -100
40 -106 48 -9 10 27 90 147 334 l159 321 -23 15 c-12 9 -91 66 -174 127 -190
139 -210 151 -282 170 -71 18 -175 20 -198 3z"/>
<path d="M5950 7119 c-63 -45 -132 -91 -152 -103 -21 -11 -38 -25 -38 -31 1
-5 14 -44 30 -85 l30 -75 -71 -71 c-80 -81 -88 -104 -75 -227 l7 -64 62 -29
c56 -26 354 -188 402 -218 25 -16 265 -147 361 -196 80 -41 96 -53 309 -210
l150 -111 70 75 c39 42 99 97 134 122 l64 46 82 -6 81 -7 17 73 c10 40 17 87
17 104 0 39 35 88 139 192 75 74 81 84 70 103 -15 29 -6 126 16 168 16 31 15
33 -2 47 -23 17 -126 52 -180 60 -38 6 -45 3 -79 -30 -21 -20 -48 -39 -61 -42
-30 -8 -79 12 -101 41 l-18 23 -28 -74 c-30 -82 -26 -79 -142 -93 -39 -5 -88
-18 -109 -29 l-39 -20 -77 52 c-42 28 -100 64 -129 79 -60 32 -60 29 -5 184
l33 91 -112 31 c-61 17 -141 37 -178 46 -143 33 -220 81 -298 188 -30 42 -57
76 -60 76 -3 0 -57 -36 -120 -80z"/>
<path d="M3070 6976 c-4 -12 -72 -151 -151 -311 -79 -159 -145 -293 -147 -298
-4 -8 15 -16 136 -61 l72 -28 0 -68 0 -68 46 -11 c66 -17 154 -64 208 -110 66
-57 128 -98 193 -128 l56 -26 127 13 c70 7 147 10 171 7 24 -3 112 -33 194
-65 83 -33 159 -62 170 -66 16 -5 26 5 55 56 24 42 74 97 162 180 l126 120
-19 32 c-19 32 -19 33 0 57 30 38 155 119 184 119 31 0 33 8 12 76 -8 27 -18
106 -22 176 l-6 127 -61 -7 c-34 -4 -167 -7 -296 -7 l-235 0 -75 41 c-41 23
-100 49 -130 59 -30 10 -80 33 -111 51 -44 26 -77 37 -155 49 -109 16 -127 21
-228 59 -37 15 -113 32 -168 39 -98 13 -100 13 -108 -7z"/>
<path d="M5605 6923 c-136 -62 -314 -124 -425 -147 -41 -8 -163 -27 -270 -41
-107 -14 -208 -28 -224 -31 l-29 -6 7 -122 c3 -66 15 -152 25 -191 17 -63 22
-71 52 -83 64 -27 164 -11 375 59 105 34 198 60 206 56 9 -3 25 -25 36 -49 28
-58 72 -228 72 -277 0 -21 7 -52 15 -67 19 -37 19 -99 0 -249 -8 -66 -11 -122
-7 -126 4 -4 40 -20 80 -37 50 -21 75 -27 77 -19 3 7 20 55 40 107 19 52 40
122 47 154 9 50 20 69 68 122 82 90 86 105 72 233 -7 59 -12 121 -12 139 0 31
-5 35 -77 70 l-76 37 -4 92 c-6 119 4 148 77 218 33 31 60 62 60 68 0 18 -52
147 -59 146 -3 -1 -60 -26 -126 -56z"/>
<path d="M5110 6337 c-166 -58 -180 -61 -270 -61 -52 0 -119 6 -148 13 l-53
14 -57 -39 c-113 -75 -124 -96 -71 -136 16 -13 61 -50 98 -83 37 -33 120 -95
183 -138 97 -66 136 -86 244 -123 71 -25 155 -58 186 -75 51 -26 173 -57 185
-46 6 7 33 237 33 287 0 27 -7 56 -17 70 -10 15 -16 39 -15 64 3 45 -45 232
-72 284 -9 18 -24 32 -34 31 -9 0 -96 -28 -192 -62z"/>
<path d="M5830 6333 c1 -21 7 -81 14 -133 13 -87 13 -98 -4 -135 -9 -22 -42
-68 -73 -102 -40 -44 -58 -74 -62 -100 -4 -21 -27 -96 -51 -166 -25 -71 -44
-130 -42 -131 2 0 28 -13 58 -27 58 -28 143 -91 217 -159 30 -29 43 -36 43
-25 0 19 43 63 119 120 36 28 62 58 82 97 18 36 40 63 58 73 75 38 91 107 51
220 -18 52 -20 74 -14 170 l6 110 -34 19 c-145 80 -309 172 -335 188 l-33 20
0 -39z"/>
<path d="M7642 6344 c-12 -8 -61 -58 -107 -111 -73 -82 -85 -100 -85 -131 -1
-21 -9 -71 -19 -112 l-18 -75 -87 3 -86 3 -64 -46 c-35 -25 -92 -75 -127 -112
l-62 -67 59 -19 c55 -18 107 -21 234 -14 l44 2 52 -75 c70 -100 190 -218 230
-226 25 -5 37 0 65 24 l35 30 61 -17 c56 -15 70 -24 140 -97 53 -56 97 -91
140 -112 33 -17 63 -36 65 -42 2 -7 34 -4 93 9 205 44 460 58 672 38 l82 -7
-14 39 c-18 52 -92 380 -101 448 -4 34 -3 58 5 66 6 8 52 31 101 53 65 28 89
42 85 53 -4 11 -3 12 10 1 26 -21 17 2 -45 126 -87 173 -70 162 -225 153 -299
-17 -630 -21 -690 -10 -104 19 -297 124 -385 207 -34 32 -37 33 -58 18z"/>
<path d="M6246 6029 c-6 -91 -4 -109 19 -181 14 -43 25 -84 25 -90 0 -31 -46
-101 -79 -122 -22 -15 -47 -44 -64 -77 -17 -33 -49 -70 -79 -94 -86 -69 -118
-102 -118 -123 0 -25 164 -173 417 -374 l187 -150 20 39 c18 33 21 58 22 188
1 146 2 154 41 280 41 129 41 130 94 173 30 24 91 76 136 115 l82 71 -185 137
c-101 75 -221 156 -267 180 -45 23 -117 62 -161 86 -43 23 -79 43 -81 43 -1 0
-5 -45 -9 -101z"/>
<path d="M2880 6106 c-25 -6 -72 -28 -105 -48 -33 -20 -85 -42 -115 -48 -30
-7 -83 -30 -117 -52 -34 -22 -114 -61 -178 -88 -104 -43 -185 -90 -185 -107 0
-9 74 -106 138 -182 96 -114 145 -250 155 -431 l4 -74 99 -28 c108 -31 235
-89 418 -192 65 -36 121 -64 123 -62 15 14 51 603 43 687 l-6 61 38 19 c20 10
61 28 90 40 73 28 110 59 163 133 58 81 59 111 7 126 -46 12 -145 74 -226 142
-71 59 -116 83 -193 103 -67 18 -92 18 -153 1z"/>
<path d="M4445 6043 c-158 -148 -202 -196 -232 -247 l-31 -55 350 -116 350
-115 33 27 c18 16 74 65 123 109 l89 82 -116 42 c-94 34 -140 59 -241 129 -69
47 -143 104 -165 126 -34 35 -87 76 -97 75 -2 0 -30 -26 -63 -57z"/>
<path d="M3590 5857 c-69 -11 -75 -14 -78 -37 -4 -31 -84 -152 -122 -184 -16
-13 -69 -41 -119 -62 l-91 -38 1 -86 c2 -104 -17 -464 -31 -580 -5 -46 -6 -87
-2 -91 4 -4 41 -14 82 -24 41 -10 136 -38 210 -62 195 -63 205 -65 228 -39 36
40 169 232 231 334 35 56 69 102 76 102 8 0 98 -30 202 -66 173 -61 393 -124
436 -124 10 0 20 -6 23 -13 2 -7 -7 -69 -21 -136 -15 -68 -25 -124 -23 -126
23 -21 541 -185 586 -185 5 0 16 24 22 53 17 68 82 259 115 333 l26 58 -44 45
c-24 25 -63 71 -87 101 -24 30 -69 82 -99 115 -70 76 -152 190 -199 277 l-37
67 -380 127 c-209 70 -445 154 -525 186 -128 53 -154 60 -225 63 -44 2 -114
-2 -155 -8z"/>
<path d="M5105 5682 c-22 -20 -78 -72 -123 -114 l-84 -77 36 -68 c61 -114 404
-533 419 -512 7 9 122 198 167 274 43 73 48 87 54 165 3 47 9 112 12 146 l6
61 -93 41 c-52 22 -123 45 -159 51 -36 6 -92 24 -124 41 -32 16 -62 30 -65 30
-3 0 -24 -17 -46 -38z"/>
<path d="M6925 5639 c-22 -23 -84 -77 -137 -121 -54 -43 -98 -84 -98 -91 0 -7
-17 -61 -37 -122 -34 -106 -36 -116 -37 -260 -1 -135 -3 -155 -24 -195 l-22
-45 27 -23 c69 -56 437 -322 623 -449 202 -138 339 -223 359 -223 5 0 23 17
38 37 24 31 28 45 26 96 -1 48 4 70 28 117 16 32 29 65 29 74 0 9 15 33 34 53
18 21 43 57 55 81 33 65 87 119 149 148 48 23 64 26 115 20 l59 -6 -6 105 c-3
58 -9 152 -12 210 l-6 105 -42 19 c-54 24 -143 98 -181 150 -22 30 -41 44 -70
51 -22 6 -49 14 -60 19 -15 6 -28 1 -53 -20 -36 -32 -69 -36 -110 -15 -41 22
-173 163 -217 234 l-40 63 -42 -5 c-24 -3 -62 -9 -86 -12 -29 -4 -66 1 -117
16 -41 12 -82 23 -90 26 -9 2 -33 -13 -55 -37z"/>
<path d="M5607 5488 c-4 -29 -10 -93 -13 -143 l-7 -89 -95 -154 c-111 -181
-166 -294 -221 -456 -56 -162 -76 -269 -106 -561 -28 -274 -39 -349 -91 -595
-19 -90 -34 -172 -34 -181 0 -13 49 -33 223 -89 289 -94 289 -94 332 -180 34
-68 35 -69 68 -63 24 3 82 -9 193 -43 l159 -47 80 11 c129 19 315 68 335 88
10 11 70 111 133 224 62 113 120 216 128 229 11 18 11 25 2 28 -7 3 -13 11
-13 18 0 12 137 363 212 545 17 41 55 150 83 243 l53 167 -32 22 c-269 187
-754 572 -1005 797 -208 186 -272 237 -329 262 -24 11 -45 19 -46 19 -2 0 -6
-24 -9 -52z m323 -1600 c0 -40 3 -49 12 -40 18 18 56 14 78 -8 16 -16 20 -33
20 -95 0 -71 -1 -75 -22 -75 -22 0 -23 4 -20 57 4 69 -12 99 -46 89 -20 -7
-22 -14 -22 -77 0 -67 -1 -69 -25 -69 l-25 0 0 135 0 135 25 0 c23 0 25 -3 25
-52z m568 31 c2 -10 -5 -19 -18 -22 -27 -7 -28 -47 0 -47 13 0 20 -7 20 -20 0
-13 -7 -20 -20 -20 -18 0 -20 -7 -20 -70 0 -63 -2 -70 -20 -70 -18 0 -20 7
-20 70 0 63 -2 70 -20 70 -14 0 -20 7 -20 24 0 17 5 23 18 22 12 -1 18 8 20
29 2 17 11 36 20 43 22 17 56 11 60 -9z m-705 -1 c12 -6 27 -18 34 -27 31 -41
-4 -63 -41 -26 -50 50 -114 21 -123 -55 -4 -36 -1 -51 17 -72 27 -35 80 -38
108 -8 12 13 25 18 35 14 44 -16 -10 -74 -75 -81 -74 -7 -138 53 -138 131 0
42 29 101 58 119 31 19 94 22 125 5z m416 -84 c17 -21 21 -41 21 -96 l0 -70
-27 3 c-16 1 -40 -1 -56 -6 -39 -11 -77 16 -77 56 0 25 6 32 35 45 19 7 44 14
55 14 15 0 20 5 18 17 -4 24 -39 29 -54 8 -13 -18 -44 -14 -44 5 0 22 41 50
74 50 25 0 40 -7 55 -26z m101 14 c0 -5 9 -4 19 2 31 16 41 12 41 -15 0 -15
-6 -25 -14 -25 -30 0 -46 -30 -46 -86 0 -47 -2 -54 -20 -54 -19 0 -20 7 -20
93 0 86 1 93 20 93 11 0 20 -4 20 -8z"/>
<path d="M6131 3738 c-25 -9 -24 -31 3 -36 20 -4 46 15 46 33 0 14 -18 15 -49
3z"/>
<path d="M3920 4982 c-46 -74 -198 -295 -245 -356 -13 -17 -18 -17 -67 -6 -29
7 -98 28 -153 47 -55 18 -143 45 -195 59 -52 14 -103 28 -112 30 -15 4 -18 -1
-18 -26 0 -18 -11 -123 -24 -234 -13 -110 -27 -235 -31 -277 l-6 -75 80 -36
80 -36 -60 -128 c-45 -95 -84 -158 -156 -253 -98 -128 -270 -344 -330 -415
-18 -22 -33 -42 -33 -46 0 -3 19 -15 43 -27 23 -11 80 -49 127 -84 47 -34 129
-89 184 -121 142 -84 671 -444 701 -478 17 -18 16 -22 -20 -87 -61 -112 -194
-306 -354 -517 -83 -110 -149 -201 -148 -202 6 -4 340 -143 552 -229 132 -54
287 -118 345 -142 243 -104 266 -112 389 -132 137 -23 351 -28 461 -11 36 6
106 23 157 37 l91 26 200 -43 c110 -23 204 -41 208 -39 5 2 4 112 -2 244 -13
269 -19 295 -103 506 -74 186 -102 294 -113 438 -3 33 -3 34 -103 63 -55 16
-151 45 -214 64 l-114 36 7 111 c19 307 57 605 110 854 51 238 70 361 91 593
9 91 20 192 25 225 17 106 21 99 -81 124 -195 48 -519 164 -519 185 0 8 11 67
25 132 13 65 23 119 22 120 -1 0 -47 11 -102 24 -55 12 -199 56 -319 96 -121
41 -220 74 -220 74 -1 0 -26 -40 -56 -88z m-311 -1227 c30 -15 45 -40 35 -56
-8 -14 -22 -11 -54 13 -25 18 -33 20 -55 10 -46 -21 -30 -50 40 -72 56 -17 75
-37 75 -77 0 -34 -28 -72 -55 -74 -62 -5 -85 0 -110 27 -29 32 -32 49 -8 58
12 5 23 -1 36 -18 21 -30 67 -35 87 -11 16 20 -1 41 -39 50 -15 3 -41 14 -59
25 -27 17 -32 25 -32 59 0 68 71 102 139 66z m926 -15 c0 -18 -6 -26 -23 -28
-13 -2 -25 3 -28 12 -10 26 4 48 28 44 17 -2 23 -10 23 -28z m-694 -76 c16
-17 22 -37 23 -69 1 -61 -34 -98 -95 -98 -57 0 -89 35 -89 96 0 53 21 84 63
95 43 11 71 4 98 -24z m101 -40 c3 -70 18 -94 52 -81 13 5 16 21 16 77 0 68 1
70 25 70 25 0 25 0 25 -94 l0 -94 -62 0 c-88 0 -98 11 -98 110 0 71 2 78 20
78 17 0 19 -8 22 -66z m292 44 c11 -15 16 -46 16 -96 l0 -74 -27 5 c-14 3 -39
0 -55 -5 -40 -14 -78 11 -78 52 0 36 31 60 77 60 23 0 33 5 33 15 0 21 -29 31
-51 17 -24 -15 -49 -15 -49 0 0 48 105 68 134 26z m211 -8 c9 -17 15 -56 15
-95 0 -63 -1 -65 -25 -65 -24 0 -25 2 -25 70 0 56 -3 72 -16 77 -34 13 -49
-11 -52 -81 -3 -63 -4 -66 -27 -66 -25 0 -25 1 -25 94 l0 94 70 0 c67 1 71 0
85 -28z m85 -65 c0 -87 -2 -95 -19 -95 -18 0 -20 9 -23 91 -2 50 -1 93 1 95 2
2 13 4 23 4 16 0 18 -10 18 -95z m-190 -1555 c0 -47 1 -50 19 -40 33 17 71 11
96 -15 20 -19 25 -34 25 -72 0 -27 -7 -58 -15 -70 -19 -27 -75 -39 -104 -24
-12 7 -21 8 -21 2 0 -5 -9 -7 -20 -4 -19 5 -20 14 -20 139 0 127 1 134 20 134
17 0 20 -7 20 -50z m760 -22 l0 -72 33 32 c22 21 43 32 62 32 l29 0 -44 -45
-44 -45 47 -48 c26 -26 47 -51 47 -55 0 -19 -57 6 -92 40 l-38 37 0 -41 c0
-36 -2 -40 -23 -36 -22 4 -22 8 -25 129 -2 68 0 129 3 134 3 6 15 10 26 10 17
0 19 -7 19 -72z m-1206 -5 c14 -38 29 -79 34 -92 7 -21 13 -13 43 67 33 90 35
92 67 92 l32 0 0 -130 0 -130 -25 0 c-25 0 -25 1 -25 83 l-1 82 -27 -70 c-25
-64 -30 -70 -56 -70 -26 0 -31 6 -50 57 -12 31 -24 60 -28 63 -4 4 -6 -28 -6
-71 1 -44 -1 -78 -5 -76 -4 1 -14 2 -22 2 -13 0 -15 21 -15 130 l0 130 29 0
c27 0 31 -5 55 -67z m346 -23 c16 -16 20 -33 20 -96 l0 -76 -30 4 c-17 3 -33
1 -36 -4 -9 -14 -57 -9 -76 9 -22 19 -24 66 -3 83 8 6 33 14 55 17 30 4 40 10
38 22 -4 22 -39 27 -54 7 -13 -18 -44 -12 -44 10 0 41 95 59 130 24z m313 8
c4 -10 7 -10 18 0 21 19 49 15 49 -9 0 -13 -10 -23 -30 -30 -29 -11 -30 -13
-30 -75 0 -62 -1 -64 -25 -64 -25 0 -25 0 -25 95 0 87 2 95 19 95 11 0 21 -6
24 -12z m228 -17 c62 -62 20 -171 -66 -171 -27 0 -44 8 -67 30 -28 28 -30 36
-25 78 10 89 97 123 158 63z m205 14 c12 -8 27 -28 34 -45 27 -66 -22 -140
-94 -140 -32 0 -82 43 -89 76 -7 38 10 91 36 109 27 19 86 19 113 0z"/>
<path d="M3736 3635 c-34 -35 -12 -95 35 -95 37 0 58 37 43 78 -11 32 -53 41
-78 17z"/>
<path d="M4144 3565 c-16 -12 -17 -16 -5 -24 19 -12 55 2 59 23 4 20 -27 21
-54 1z"/>
<path d="M4360 1950 c-11 -11 -20 -29 -20 -40 0 -23 33 -60 54 -60 18 0 46 38
46 62 0 19 -34 58 -50 58 -5 0 -19 -9 -30 -20z"/>
<path d="M4173 1893 c-12 -2 -24 -11 -27 -19 -7 -19 22 -30 43 -17 17 11 28
44 14 42 -4 -1 -18 -4 -30 -6z"/>
<path d="M4688 1959 c-36 -20 -14 -109 26 -109 27 0 49 28 49 60 0 48 -36 72
-75 49z"/>
<path d="M4894 1945 c-34 -52 13 -113 62 -80 29 19 32 64 6 88 -26 24 -49 21
-68 -8z"/>
<path d="M2451 4953 c-23 -101 -33 -131 -98 -293 -33 -83 -46 -103 -105 -160
-54 -52 -76 -84 -112 -160 -47 -99 -52 -105 -358 -427 -32 -34 -55 -64 -51
-66 32 -20 230 -50 363 -57 97 -4 194 -16 258 -30 57 -12 104 -21 105 -19 13
21 202 219 208 219 17 0 236 -144 291 -191 l57 -49 40 52 c57 76 161 289 144
296 -4 1 -37 16 -73 31 l-65 28 2 84 c2 46 12 154 22 239 11 85 23 191 27 236
l7 80 -177 98 c-97 54 -204 108 -237 121 -48 19 -206 65 -223 65 -2 0 -13 -44
-25 -97z"/>
<path d="M7015 4333 c-42 -142 -96 -292 -205 -563 -56 -140 -104 -262 -107
-272 -3 -11 119 -140 410 -432 l415 -415 92 238 92 238 152 -49 c83 -28 200
-67 261 -89 87 -31 111 -37 121 -27 34 36 403 603 397 609 -21 20 -241 128
-423 207 -532 232 -652 295 -970 510 -101 68 -190 126 -197 129 -8 3 -21 -25
-38 -84z"/>
<path d="M2564 3832 c-54 -59 -100 -109 -101 -111 -2 -3 -56 6 -121 18 -69 14
-181 27 -272 32 -112 5 -184 15 -259 33 l-104 26 -114 -119 c-99 -104 -205
-199 -284 -254 -22 -16 -22 -16 59 -102 84 -88 104 -118 327 -470 72 -113 178
-270 237 -349 l106 -144 64 23 c100 37 156 63 201 93 47 32 87 48 307 126 85
30 207 77 270 104 63 27 159 63 213 81 115 39 121 27 -68 141 -66 40 -158 100
-205 134 -47 35 -111 78 -143 95 -32 18 -57 37 -55 41 2 5 58 75 125 157 66
81 150 186 186 232 l65 85 -57 48 c-45 38 -166 120 -267 181 -7 4 -52 -37
-110 -101z"/>
<path d="M6664 3351 c-165 -299 -207 -371 -225 -387 -21 -19 -260 -79 -361
-90 -32 -4 -58 -12 -58 -18 0 -6 9 -50 20 -98 26 -120 75 -391 105 -585 20
-132 31 -175 56 -225 17 -35 43 -92 56 -128 13 -36 42 -100 64 -142 21 -42 39
-84 39 -92 0 -9 2 -16 5 -16 2 0 67 45 144 99 77 55 213 147 303 205 416 267
549 358 558 379 5 12 40 102 79 201 l70 178 -404 403 -403 402 -48 -86z"/>
<path d="M5026 3238 c-26 -149 -77 -681 -65 -692 5 -5 612 -186 774 -231 72
-20 185 -52 253 -72 68 -19 125 -33 127 -31 12 12 -111 638 -128 655 -7 6 -74
30 -151 53 -106 32 -148 41 -180 36 l-41 -6 -34 71 c-19 39 -43 77 -55 84 -17
11 -385 135 -472 160 -18 5 -23 0 -28 -27z"/>
<path d="M3065 2785 c-83 -28 -177 -64 -210 -80 -33 -15 -158 -63 -278 -106
-140 -49 -237 -90 -270 -113 -29 -19 -97 -52 -152 -72 -55 -21 -101 -38 -103
-39 -1 -1 53 -89 122 -196 144 -225 203 -330 386 -681 l134 -257 40 32 c156
123 324 312 578 652 252 336 387 546 375 580 -4 10 -190 141 -427 302 l-45 31
-150 -53z"/>
<path d="M5390 2356 c0 -90 55 -293 125 -456 72 -171 88 -274 96 -642 l2 -87
91 -20 c150 -34 520 -111 521 -108 1 1 12 52 24 112 12 61 38 181 58 268 l36
158 -51 107 c-28 59 -54 118 -58 132 -3 14 -24 60 -45 102 -26 52 -44 106 -54
165 -8 48 -19 91 -23 95 -4 4 -81 28 -172 53 -91 26 -249 71 -352 101 -103 30
-189 54 -193 54 -3 0 -5 -15 -5 -34z"/>
</g>
</svg>
